<?xml version="1.0" encoding="utf-8"?>
<svg xmlns="http://www.w3.org/2000/svg" xmlns:xlink="http://www.w3.org/1999/xlink" width="600" height="400" viewBox="0 0 2400 1600">
<defs>
  <clipPath id="clip790">
    <rect x="0" y="0" width="2400" height="1600"/>
  </clipPath>
</defs>
<path clip-path="url(#clip790)" d="
M0 1600 L2400 1600 L2400 0 L0 0  Z
  " fill="#ffffff" fill-rule="evenodd" fill-opacity="1"/>
<defs>
  <clipPath id="clip791">
    <rect x="480" y="0" width="1681" height="1600"/>
  </clipPath>
</defs>
<path clip-path="url(#clip790)" d="
M140.696 1423.18 L2352.76 1423.18 L2352.76 47.2441 L140.696 47.2441  Z
  " fill="#ffffff" fill-rule="evenodd" fill-opacity="1"/>
<defs>
  <clipPath id="clip792">
    <rect x="140" y="47" width="2213" height="1377"/>
  </clipPath>
</defs>
<polyline clip-path="url(#clip792)" style="stroke:#000000; stroke-linecap:butt; stroke-linejoin:round; stroke-width:2; stroke-opacity:0.1; fill:none" points="
  140.696,1423.18 140.696,47.2441 
  "/>
<polyline clip-path="url(#clip792)" style="stroke:#000000; stroke-linecap:butt; stroke-linejoin:round; stroke-width:2; stroke-opacity:0.1; fill:none" points="
  755.157,1423.18 755.157,47.2441 
  "/>
<polyline clip-path="url(#clip792)" style="stroke:#000000; stroke-linecap:butt; stroke-linejoin:round; stroke-width:2; stroke-opacity:0.1; fill:none" points="
  1369.62,1423.18 1369.62,47.2441 
  "/>
<polyline clip-path="url(#clip792)" style="stroke:#000000; stroke-linecap:butt; stroke-linejoin:round; stroke-width:2; stroke-opacity:0.1; fill:none" points="
  1984.08,1423.18 1984.08,47.2441 
  "/>
<polyline clip-path="url(#clip790)" style="stroke:#000000; stroke-linecap:butt; stroke-linejoin:round; stroke-width:4; stroke-opacity:1; fill:none" points="
  140.696,1423.18 2352.76,1423.18 
  "/>
<polyline clip-path="url(#clip790)" style="stroke:#000000; stroke-linecap:butt; stroke-linejoin:round; stroke-width:4; stroke-opacity:1; fill:none" points="
  140.696,1423.18 140.696,1404.28 
  "/>
<polyline clip-path="url(#clip790)" style="stroke:#000000; stroke-linecap:butt; stroke-linejoin:round; stroke-width:4; stroke-opacity:1; fill:none" points="
  755.157,1423.18 755.157,1404.28 
  "/>
<polyline clip-path="url(#clip790)" style="stroke:#000000; stroke-linecap:butt; stroke-linejoin:round; stroke-width:4; stroke-opacity:1; fill:none" points="
  1369.62,1423.18 1369.62,1404.28 
  "/>
<polyline clip-path="url(#clip790)" style="stroke:#000000; stroke-linecap:butt; stroke-linejoin:round; stroke-width:4; stroke-opacity:1; fill:none" points="
  1984.08,1423.18 1984.08,1404.28 
  "/>
<path clip-path="url(#clip790)" d="M140.696 1454.1 Q137.084 1454.1 135.256 1457.66 Q133.45 1461.2 133.45 1468.33 Q133.45 1475.44 135.256 1479.01 Q137.084 1482.55 140.696 1482.55 Q144.33 1482.55 146.135 1479.01 Q147.964 1475.44 147.964 1468.33 Q147.964 1461.2 146.135 1457.66 Q144.33 1454.1 140.696 1454.1 M140.696 1450.39 Q146.506 1450.39 149.561 1455 Q152.64 1459.58 152.64 1468.33 Q152.64 1477.06 149.561 1481.67 Q146.506 1486.25 140.696 1486.25 Q134.885 1486.25 131.807 1481.67 Q128.751 1477.06 128.751 1468.33 Q128.751 1459.58 131.807 1455 Q134.885 1450.39 140.696 1450.39 Z" fill="#000000" fill-rule="evenodd" fill-opacity="1" /><path clip-path="url(#clip790)" d="M714.763 1481.64 L722.402 1481.64 L722.402 1455.28 L714.092 1456.95 L714.092 1452.69 L722.356 1451.02 L727.032 1451.02 L727.032 1481.64 L734.671 1481.64 L734.671 1485.58 L714.763 1485.58 L714.763 1481.64 Z" fill="#000000" fill-rule="evenodd" fill-opacity="1" /><path clip-path="url(#clip790)" d="M754.115 1454.1 Q750.504 1454.1 748.675 1457.66 Q746.87 1461.2 746.87 1468.33 Q746.87 1475.44 748.675 1479.01 Q750.504 1482.55 754.115 1482.55 Q757.749 1482.55 759.555 1479.01 Q761.384 1475.44 761.384 1468.33 Q761.384 1461.2 759.555 1457.66 Q757.749 1454.1 754.115 1454.1 M754.115 1450.39 Q759.925 1450.39 762.981 1455 Q766.059 1459.58 766.059 1468.33 Q766.059 1477.06 762.981 1481.67 Q759.925 1486.25 754.115 1486.25 Q748.305 1486.25 745.226 1481.67 Q742.171 1477.06 742.171 1468.33 Q742.171 1459.58 745.226 1455 Q748.305 1450.39 754.115 1450.39 Z" fill="#000000" fill-rule="evenodd" fill-opacity="1" /><path clip-path="url(#clip790)" d="M784.277 1454.1 Q780.666 1454.1 778.837 1457.66 Q777.032 1461.2 777.032 1468.33 Q777.032 1475.44 778.837 1479.01 Q780.666 1482.55 784.277 1482.55 Q787.911 1482.55 789.717 1479.01 Q791.545 1475.44 791.545 1468.33 Q791.545 1461.2 789.717 1457.66 Q787.911 1454.1 784.277 1454.1 M784.277 1450.39 Q790.087 1450.39 793.143 1455 Q796.221 1459.58 796.221 1468.33 Q796.221 1477.06 793.143 1481.67 Q790.087 1486.25 784.277 1486.25 Q778.467 1486.25 775.388 1481.67 Q772.333 1477.06 772.333 1468.33 Q772.333 1459.58 775.388 1455 Q778.467 1450.39 784.277 1450.39 Z" fill="#000000" fill-rule="evenodd" fill-opacity="1" /><path clip-path="url(#clip790)" d="M1333.31 1481.64 L1349.63 1481.64 L1349.63 1485.58 L1327.69 1485.58 L1327.69 1481.64 Q1330.35 1478.89 1334.93 1474.26 Q1339.54 1469.61 1340.72 1468.27 Q1342.96 1465.74 1343.84 1464.01 Q1344.75 1462.25 1344.75 1460.56 Q1344.75 1457.8 1342.8 1456.07 Q1340.88 1454.33 1337.78 1454.33 Q1335.58 1454.33 1333.13 1455.09 Q1330.69 1455.86 1327.92 1457.41 L1327.92 1452.69 Q1330.74 1451.55 1333.19 1450.97 Q1335.65 1450.39 1337.69 1450.39 Q1343.06 1450.39 1346.25 1453.08 Q1349.44 1455.77 1349.44 1460.26 Q1349.44 1462.39 1348.63 1464.31 Q1347.85 1466.2 1345.74 1468.8 Q1345.16 1469.47 1342.06 1472.69 Q1338.96 1475.88 1333.31 1481.64 Z" fill="#000000" fill-rule="evenodd" fill-opacity="1" /><path clip-path="url(#clip790)" d="M1369.44 1454.1 Q1365.83 1454.1 1364 1457.66 Q1362.2 1461.2 1362.2 1468.33 Q1362.2 1475.44 1364 1479.01 Q1365.83 1482.55 1369.44 1482.55 Q1373.08 1482.55 1374.88 1479.01 Q1376.71 1475.44 1376.71 1468.33 Q1376.71 1461.2 1374.88 1457.66 Q1373.08 1454.1 1369.44 1454.1 M1369.44 1450.39 Q1375.25 1450.39 1378.31 1455 Q1381.39 1459.58 1381.39 1468.33 Q1381.39 1477.06 1378.31 1481.67 Q1375.25 1486.25 1369.44 1486.25 Q1363.63 1486.25 1360.56 1481.67 Q1357.5 1477.06 1357.5 1468.33 Q1357.5 1459.58 1360.56 1455 Q1363.63 1450.39 1369.44 1450.39 Z" fill="#000000" fill-rule="evenodd" fill-opacity="1" /><path clip-path="url(#clip790)" d="M1399.61 1454.1 Q1396 1454.1 1394.17 1457.66 Q1392.36 1461.2 1392.36 1468.33 Q1392.36 1475.44 1394.17 1479.01 Q1396 1482.55 1399.61 1482.55 Q1403.24 1482.55 1405.05 1479.01 Q1406.87 1475.44 1406.87 1468.33 Q1406.87 1461.2 1405.05 1457.66 Q1403.24 1454.1 1399.61 1454.1 M1399.61 1450.39 Q1405.42 1450.39 1408.47 1455 Q1411.55 1459.58 1411.55 1468.33 Q1411.55 1477.06 1408.47 1481.67 Q1405.42 1486.25 1399.61 1486.25 Q1393.8 1486.25 1390.72 1481.67 Q1387.66 1477.06 1387.66 1468.33 Q1387.66 1459.58 1390.72 1455 Q1393.8 1450.39 1399.61 1450.39 Z" fill="#000000" fill-rule="evenodd" fill-opacity="1" /><path clip-path="url(#clip790)" d="M1957.84 1466.95 Q1961.2 1467.66 1963.07 1469.93 Q1964.97 1472.2 1964.97 1475.53 Q1964.97 1480.65 1961.45 1483.45 Q1957.93 1486.25 1951.45 1486.25 Q1949.28 1486.25 1946.96 1485.81 Q1944.67 1485.39 1942.22 1484.54 L1942.22 1480.02 Q1944.16 1481.16 1946.48 1481.74 Q1948.79 1482.32 1951.31 1482.32 Q1955.71 1482.32 1958 1480.58 Q1960.32 1478.84 1960.32 1475.53 Q1960.32 1472.48 1958.16 1470.77 Q1956.04 1469.03 1952.22 1469.03 L1948.19 1469.03 L1948.19 1465.19 L1952.4 1465.19 Q1955.85 1465.19 1957.68 1463.82 Q1959.51 1462.43 1959.51 1459.84 Q1959.51 1457.18 1957.61 1455.77 Q1955.73 1454.33 1952.22 1454.33 Q1950.29 1454.33 1948.1 1454.75 Q1945.9 1455.16 1943.26 1456.04 L1943.26 1451.88 Q1945.92 1451.14 1948.23 1450.77 Q1950.57 1450.39 1952.63 1450.39 Q1957.96 1450.39 1961.06 1452.83 Q1964.16 1455.23 1964.16 1459.35 Q1964.16 1462.22 1962.52 1464.21 Q1960.87 1466.18 1957.84 1466.95 Z" fill="#000000" fill-rule="evenodd" fill-opacity="1" /><path clip-path="url(#clip790)" d="M1983.84 1454.1 Q1980.23 1454.1 1978.4 1457.66 Q1976.59 1461.2 1976.59 1468.33 Q1976.59 1475.44 1978.4 1479.01 Q1980.23 1482.55 1983.84 1482.55 Q1987.47 1482.55 1989.28 1479.01 Q1991.1 1475.44 1991.1 1468.33 Q1991.1 1461.2 1989.28 1457.66 Q1987.47 1454.1 1983.84 1454.1 M1983.84 1450.39 Q1989.65 1450.39 1992.7 1455 Q1995.78 1459.58 1995.78 1468.33 Q1995.78 1477.06 1992.7 1481.67 Q1989.65 1486.25 1983.84 1486.25 Q1978.03 1486.25 1974.95 1481.67 Q1971.89 1477.06 1971.89 1468.33 Q1971.89 1459.58 1974.95 1455 Q1978.03 1450.39 1983.84 1450.39 Z" fill="#000000" fill-rule="evenodd" fill-opacity="1" /><path clip-path="url(#clip790)" d="M2014 1454.1 Q2010.39 1454.1 2008.56 1457.66 Q2006.75 1461.2 2006.75 1468.33 Q2006.75 1475.44 2008.56 1479.01 Q2010.39 1482.55 2014 1482.55 Q2017.63 1482.55 2019.44 1479.01 Q2021.27 1475.44 2021.27 1468.33 Q2021.27 1461.2 2019.44 1457.66 Q2017.63 1454.1 2014 1454.1 M2014 1450.39 Q2019.81 1450.39 2022.86 1455 Q2025.94 1459.58 2025.94 1468.33 Q2025.94 1477.06 2022.86 1481.67 Q2019.81 1486.25 2014 1486.25 Q2008.19 1486.25 2005.11 1481.67 Q2002.05 1477.06 2002.05 1468.33 Q2002.05 1459.58 2005.11 1455 Q2008.19 1450.39 2014 1450.39 Z" fill="#000000" fill-rule="evenodd" fill-opacity="1" /><path clip-path="url(#clip790)" d="M1245.79 1522.27 L1245.79 1532.4 L1257.85 1532.4 L1257.85 1536.95 L1245.79 1536.95 L1245.79 1556.3 Q1245.79 1560.66 1246.96 1561.9 Q1248.17 1563.14 1251.83 1563.14 L1257.85 1563.14 L1257.85 1568.04 L1251.83 1568.04 Q1245.05 1568.04 1242.48 1565.53 Q1239.9 1562.98 1239.9 1556.3 L1239.9 1536.95 L1235.6 1536.95 L1235.6 1532.4 L1239.9 1532.4 L1239.9 1522.27 L1245.79 1522.27 Z" fill="#000000" fill-rule="evenodd" fill-opacity="1" /><polyline clip-path="url(#clip792)" style="stroke:#000000; stroke-linecap:butt; stroke-linejoin:round; stroke-width:2; stroke-opacity:0.1; fill:none" points="
  140.696,1384.24 2352.76,1384.24 
  "/>
<polyline clip-path="url(#clip792)" style="stroke:#000000; stroke-linecap:butt; stroke-linejoin:round; stroke-width:2; stroke-opacity:0.1; fill:none" points="
  140.696,951.554 2352.76,951.554 
  "/>
<polyline clip-path="url(#clip792)" style="stroke:#000000; stroke-linecap:butt; stroke-linejoin:round; stroke-width:2; stroke-opacity:0.1; fill:none" points="
  140.696,518.87 2352.76,518.87 
  "/>
<polyline clip-path="url(#clip792)" style="stroke:#000000; stroke-linecap:butt; stroke-linejoin:round; stroke-width:2; stroke-opacity:0.1; fill:none" points="
  140.696,86.1857 2352.76,86.1857 
  "/>
<polyline clip-path="url(#clip790)" style="stroke:#000000; stroke-linecap:butt; stroke-linejoin:round; stroke-width:4; stroke-opacity:1; fill:none" points="
  140.696,1423.18 140.696,47.2441 
  "/>
<polyline clip-path="url(#clip790)" style="stroke:#000000; stroke-linecap:butt; stroke-linejoin:round; stroke-width:4; stroke-opacity:1; fill:none" points="
  140.696,1384.24 159.593,1384.24 
  "/>
<polyline clip-path="url(#clip790)" style="stroke:#000000; stroke-linecap:butt; stroke-linejoin:round; stroke-width:4; stroke-opacity:1; fill:none" points="
  140.696,951.554 159.593,951.554 
  "/>
<polyline clip-path="url(#clip790)" style="stroke:#000000; stroke-linecap:butt; stroke-linejoin:round; stroke-width:4; stroke-opacity:1; fill:none" points="
  140.696,518.87 159.593,518.87 
  "/>
<polyline clip-path="url(#clip790)" style="stroke:#000000; stroke-linecap:butt; stroke-linejoin:round; stroke-width:4; stroke-opacity:1; fill:none" points="
  140.696,86.1857 159.593,86.1857 
  "/>
<path clip-path="url(#clip790)" d="M92.7512 1370.04 Q89.1401 1370.04 87.3114 1373.6 Q85.5058 1377.14 85.5058 1384.27 Q85.5058 1391.38 87.3114 1394.94 Q89.1401 1398.49 92.7512 1398.49 Q96.3854 1398.49 98.1909 1394.94 Q100.02 1391.38 100.02 1384.27 Q100.02 1377.14 98.1909 1373.6 Q96.3854 1370.04 92.7512 1370.04 M92.7512 1366.33 Q98.5613 1366.33 101.617 1370.94 Q104.696 1375.52 104.696 1384.27 Q104.696 1393 101.617 1397.61 Q98.5613 1402.19 92.7512 1402.19 Q86.941 1402.19 83.8623 1397.61 Q80.8068 1393 80.8068 1384.27 Q80.8068 1375.52 83.8623 1370.94 Q86.941 1366.33 92.7512 1366.33 Z" fill="#000000" fill-rule="evenodd" fill-opacity="1" /><path clip-path="url(#clip790)" d="M53.3995 964.899 L61.0384 964.899 L61.0384 938.533 L52.7282 940.2 L52.7282 935.941 L60.9921 934.274 L65.668 934.274 L65.668 964.899 L73.3068 964.899 L73.3068 968.834 L53.3995 968.834 L53.3995 964.899 Z" fill="#000000" fill-rule="evenodd" fill-opacity="1" /><path clip-path="url(#clip790)" d="M92.7512 937.353 Q89.1401 937.353 87.3114 940.918 Q85.5058 944.459 85.5058 951.589 Q85.5058 958.695 87.3114 962.26 Q89.1401 965.802 92.7512 965.802 Q96.3854 965.802 98.1909 962.26 Q100.02 958.695 100.02 951.589 Q100.02 944.459 98.1909 940.918 Q96.3854 937.353 92.7512 937.353 M92.7512 933.649 Q98.5613 933.649 101.617 938.256 Q104.696 942.839 104.696 951.589 Q104.696 960.316 101.617 964.922 Q98.5613 969.505 92.7512 969.505 Q86.941 969.505 83.8623 964.922 Q80.8068 960.316 80.8068 951.589 Q80.8068 942.839 83.8623 938.256 Q86.941 933.649 92.7512 933.649 Z" fill="#000000" fill-rule="evenodd" fill-opacity="1" /><path clip-path="url(#clip790)" d="M56.6171 532.215 L72.9365 532.215 L72.9365 536.15 L50.9921 536.15 L50.9921 532.215 Q53.6541 529.46 58.2375 524.83 Q62.8439 520.178 64.0245 518.835 Q66.2698 516.312 67.1494 514.576 Q68.0522 512.817 68.0522 511.127 Q68.0522 508.372 66.1078 506.636 Q64.1865 504.9 61.0847 504.9 Q58.8856 504.9 56.4319 505.664 Q54.0014 506.428 51.2236 507.979 L51.2236 503.257 Q54.0477 502.122 56.5014 501.544 Q58.955 500.965 60.9921 500.965 Q66.3624 500.965 69.5568 503.65 Q72.7513 506.335 72.7513 510.826 Q72.7513 512.956 71.9411 514.877 Q71.1541 516.775 69.0476 519.368 Q68.4689 520.039 65.367 523.256 Q62.2652 526.451 56.6171 532.215 Z" fill="#000000" fill-rule="evenodd" fill-opacity="1" /><path clip-path="url(#clip790)" d="M92.7512 504.669 Q89.1401 504.669 87.3114 508.233 Q85.5058 511.775 85.5058 518.905 Q85.5058 526.011 87.3114 529.576 Q89.1401 533.117 92.7512 533.117 Q96.3854 533.117 98.1909 529.576 Q100.02 526.011 100.02 518.905 Q100.02 511.775 98.1909 508.233 Q96.3854 504.669 92.7512 504.669 M92.7512 500.965 Q98.5613 500.965 101.617 505.571 Q104.696 510.155 104.696 518.905 Q104.696 527.631 101.617 532.238 Q98.5613 536.821 92.7512 536.821 Q86.941 536.821 83.8623 532.238 Q80.8068 527.631 80.8068 518.905 Q80.8068 510.155 83.8623 505.571 Q86.941 500.965 92.7512 500.965 Z" fill="#000000" fill-rule="evenodd" fill-opacity="1" /><path clip-path="url(#clip790)" d="M66.7559 84.8315 Q70.1124 85.5491 71.9874 87.8176 Q73.8855 90.0861 73.8855 93.4194 Q73.8855 98.5351 70.367 101.336 Q66.8485 104.137 60.3671 104.137 Q58.1912 104.137 55.8764 103.697 Q53.5847 103.28 51.131 102.424 L51.131 97.9101 Q53.0754 99.0444 55.3903 99.6231 Q57.7051 100.202 60.2282 100.202 Q64.6263 100.202 66.918 98.4657 Q69.2328 96.7296 69.2328 93.4194 Q69.2328 90.3639 67.08 88.6509 Q64.9504 86.9148 61.131 86.9148 L57.1032 86.9148 L57.1032 83.0723 L61.3161 83.0723 Q64.7652 83.0723 66.5939 81.7065 Q68.4226 80.3176 68.4226 77.7251 Q68.4226 75.063 66.5245 73.651 Q64.6495 72.2158 61.131 72.2158 Q59.2097 72.2158 57.0106 72.6325 Q54.8115 73.0492 52.1727 73.9288 L52.1727 69.7621 Q54.8347 69.0214 57.1495 68.651 Q59.4875 68.2807 61.5476 68.2807 Q66.8717 68.2807 69.9735 70.7112 Q73.0753 73.1186 73.0753 77.239 Q73.0753 80.1093 71.4318 82.1 Q69.7883 84.0676 66.7559 84.8315 Z" fill="#000000" fill-rule="evenodd" fill-opacity="1" /><path clip-path="url(#clip790)" d="M92.7512 71.9844 Q89.1401 71.9844 87.3114 75.5492 Q85.5058 79.0908 85.5058 86.2204 Q85.5058 93.3268 87.3114 96.8916 Q89.1401 100.433 92.7512 100.433 Q96.3854 100.433 98.1909 96.8916 Q100.02 93.3268 100.02 86.2204 Q100.02 79.0908 98.1909 75.5492 Q96.3854 71.9844 92.7512 71.9844 M92.7512 68.2807 Q98.5613 68.2807 101.617 72.8871 Q104.696 77.4704 104.696 86.2204 Q104.696 94.9472 101.617 99.5537 Q98.5613 104.137 92.7512 104.137 Q86.941 104.137 83.8623 99.5537 Q80.8068 94.9472 80.8068 86.2204 Q80.8068 77.4704 83.8623 72.8871 Q86.941 68.2807 92.7512 68.2807 Z" fill="#000000" fill-rule="evenodd" fill-opacity="1" /><polyline clip-path="url(#clip792)" style="stroke:#009af9; stroke-linecap:butt; stroke-linejoin:round; stroke-width:8; stroke-opacity:1; fill:none" points="
  140.696,951.554 202.142,888.841 263.588,828.821 325.034,774.254 386.48,727.016 447.926,686.836 509.372,652.758 570.818,623.891 632.265,599.464 693.711,578.809 
  755.157,561.357 816.603,546.617 878.049,534.174 939.495,523.673 1000.94,514.811 1062.39,507.334 1123.83,501.024 1185.28,495.7 1246.73,491.205 1308.17,487.409 
  1369.62,484.203 1431.06,481.492 1492.51,479.199 1553.96,477.257 1615.4,475.611 1676.85,474.213 1738.29,473.026 1799.74,472.014 1861.19,471.15 1922.63,470.411 
  1984.08,469.777 2045.53,469.231 2106.97,468.76 2168.42,468.351 2229.86,467.994 2291.31,467.681 2352.76,467.406 
  "/>
<polyline clip-path="url(#clip792)" style="stroke:#e26f46; stroke-linecap:butt; stroke-linejoin:round; stroke-width:8; stroke-opacity:1; fill:none" points="
  140.696,951.554 202.142,1383.8 263.588,1383.92 325.034,1384.18 386.48,1384.23 447.926,1384.24 509.372,1384.24 570.818,1384.24 632.265,1384.24 693.711,1384.24 
  755.157,1384.24 816.603,1384.24 878.049,1384.24 939.495,1384.24 1000.94,1384.24 1062.39,1384.24 1123.83,1384.24 1185.28,1384.24 1246.73,1384.24 1308.17,1384.24 
  1369.62,1384.24 1431.06,1384.24 1492.51,1384.24 1553.96,1384.24 1615.4,1384.24 1676.85,1384.24 1738.29,1384.24 1799.74,1384.24 1861.19,1384.24 1922.63,1384.24 
  1984.08,1384.24 2045.53,1384.24 2106.97,1384.24 2168.42,1384.24 2229.86,1384.24 2291.31,1384.24 2352.76,1384.24 
  "/>
<polyline clip-path="url(#clip792)" style="stroke:#3da44d; stroke-linecap:butt; stroke-linejoin:round; stroke-width:8; stroke-opacity:1; fill:none" points="
  140.696,951.554 202.142,1340.3 263.588,1376.04 325.034,1383.55 386.48,1384.21 447.926,1384.23 509.372,1384.23 570.818,1384.23 632.265,1384.23 693.711,1384.23 
  755.157,1384.23 816.603,1384.23 878.049,1384.23 939.495,1384.23 1000.94,1384.23 1062.39,1384.23 1123.83,1384.23 1185.28,1384.24 1246.73,1384.24 1308.17,1384.24 
  1369.62,1384.24 1431.06,1384.24 1492.51,1384.24 1553.96,1384.24 1615.4,1384.24 1676.85,1384.24 1738.29,1384.24 1799.74,1384.24 1861.19,1384.24 1922.63,1384.24 
  1984.08,1384.24 2045.53,1384.24 2106.97,1384.24 2168.42,1384.24 2229.86,1384.24 2291.31,1384.24 2352.76,1384.24 
  "/>
<polyline clip-path="url(#clip792)" style="stroke:#c271d2; stroke-linecap:butt; stroke-linejoin:round; stroke-width:8; stroke-opacity:1; fill:none" points="
  140.696,-9.08637e+09 202.142,-9.08637e+09 263.588,-9.08637e+09 325.034,-9.08637e+09 386.48,-9.08637e+09 447.926,-9.08637e+09 509.372,-9.08637e+09 570.818,-9.08637e+09 632.265,-9.08637e+09 693.711,-9.08637e+09 
  755.157,-9.08637e+09 816.603,-9.08637e+09 878.049,-9.08637e+09 939.495,-9.08637e+09 1000.94,-9.08637e+09 1062.39,-9.08637e+09 1123.83,-9.08637e+09 1185.28,-9.08637e+09 1246.73,-9.08637e+09 1308.17,-9.08637e+09 
  1369.62,-9.08637e+09 1431.06,-9.08637e+09 1492.51,-9.08637e+09 1553.96,-9.08637e+09 1615.4,-9.08637e+09 1676.85,-9.08637e+09 1738.29,-9.08637e+09 1799.74,-9.08637e+09 1861.19,-9.08637e+09 1922.63,-9.08637e+09 
  1984.08,-9.08637e+09 2045.53,-9.08637e+09 2106.97,-9.08637e+09 2168.42,-9.08637e+09 2229.86,-9.08637e+09 2291.31,-9.08637e+09 2352.76,-9.08637e+09 
  "/>
<polyline clip-path="url(#clip792)" style="stroke:#ac8d18; stroke-linecap:butt; stroke-linejoin:round; stroke-width:8; stroke-opacity:1; fill:none" points="
  140.696,1384.24 202.142,1368.3 263.588,1342.57 325.034,1300.34 386.48,1254.56 447.926,1214.5 509.372,1180.51 570.818,1151.73 632.265,1127.39 693.711,1106.82 
  755.157,1089.45 816.603,1074.79 878.049,1062.43 939.495,1052.02 1000.94,1043.24 1062.39,1035.85 1123.83,1029.62 1185.28,1024.38 1246.73,1019.97 1308.17,1016.26 
  1369.62,1013.13 1431.06,1010.51 1492.51,1008.3 1553.96,1006.44 1615.4,1004.88 1676.85,1003.56 1738.29,1002.46 1799.74,1001.53 1861.19,1000.75 1922.63,1000.09 
  1984.08,999.542 2045.53,999.079 2106.97,998.69 2168.42,998.364 2229.86,998.09 2291.31,997.86 2352.76,997.667 
  "/>
<polyline clip-path="url(#clip792)" style="stroke:#00a9ad; stroke-linecap:butt; stroke-linejoin:round; stroke-width:8; stroke-opacity:1; fill:none" points="
  140.696,951.554 202.142,967.494 263.588,993.225 325.034,1035.45 386.48,1081.24 447.926,1121.29 509.372,1155.28 570.818,1184.06 632.265,1208.41 693.711,1228.98 
  755.157,1246.34 816.603,1261 878.049,1273.36 939.495,1283.77 1000.94,1292.55 1062.39,1299.95 1123.83,1306.17 1185.28,1311.41 1246.73,1315.82 1308.17,1319.53 
  1369.62,1322.66 1431.06,1325.28 1492.51,1327.49 1553.96,1329.35 1615.4,1330.92 1676.85,1332.23 1738.29,1333.33 1799.74,1334.26 1861.19,1335.04 1922.63,1335.7 
  1984.08,1336.25 2045.53,1336.71 2106.97,1337.1 2168.42,1337.43 2229.86,1337.7 2291.31,1337.93 2352.76,1338.13 
  "/>
<polyline clip-path="url(#clip792)" style="stroke:#ed5d92; stroke-linecap:butt; stroke-linejoin:round; stroke-width:8; stroke-opacity:1; fill:none" points="
  140.696,-72172.1 202.142,-72171.7 263.588,-72171.5 325.034,-72171.5 386.48,-72171.5 447.926,-72171.5 509.372,-72171.5 570.818,-72171.5 632.265,-72171.5 693.711,-72171.5 
  755.157,-72171.5 816.603,-72171.5 878.049,-72171.5 939.495,-72171.5 1000.94,-72171.5 1062.39,-72171.5 1123.83,-72171.4 1185.28,-72171.4 1246.73,-72171.4 1308.17,-72171.4 
  1369.62,-72171.4 1431.06,-72171.4 1492.51,-72171.4 1553.96,-72171.4 1615.4,-72171.4 1676.85,-72171.4 1738.29,-72171.4 1799.74,-72171.4 1861.19,-72171.4 1922.63,-72171.4 
  1984.08,-72171.4 2045.53,-72171.4 2106.97,-72171.4 2168.42,-72171.4 2229.86,-72171.4 2291.31,-72171.4 2352.76,-72171.4 
  "/>
<polyline clip-path="url(#clip792)" style="stroke:#c68125; stroke-linecap:butt; stroke-linejoin:round; stroke-width:8; stroke-opacity:1; fill:none" points="
  140.696,1383.81 202.142,1383.66 263.588,1383.52 325.034,1384.11 386.48,1384.23 447.926,1384.24 509.372,1384.24 570.818,1384.24 632.265,1384.24 693.711,1384.24 
  755.157,1384.24 816.603,1384.24 878.049,1384.24 939.495,1384.24 1000.94,1384.24 1062.39,1384.24 1123.83,1384.24 1185.28,1384.24 1246.73,1384.24 1308.17,1384.24 
  1369.62,1384.24 1431.06,1384.24 1492.51,1384.24 1553.96,1384.24 1615.4,1384.24 1676.85,1384.24 1738.29,1384.24 1799.74,1384.24 1861.19,1384.24 1922.63,1384.24 
  1984.08,1384.24 2045.53,1384.24 2106.97,1384.24 2168.42,1384.24 2229.86,1384.24 2291.31,1384.24 2352.76,1384.24 
  "/>
<polyline clip-path="url(#clip792)" style="stroke:#00a98d; stroke-linecap:butt; stroke-linejoin:round; stroke-width:8; stroke-opacity:1; fill:none" points="
  140.696,-18086.6 202.142,-18094.3 263.588,-18097.4 325.034,-18098.7 386.48,-18098.8 447.926,-18098.9 509.372,-18098.9 570.818,-18098.9 632.265,-18098.9 693.711,-18098.9 
  755.157,-18099 816.603,-18099 878.049,-18099 939.495,-18099 1000.94,-18099 1062.39,-18099 1123.83,-18099.1 1185.28,-18099.1 1246.73,-18099.1 1308.17,-18099.1 
  1369.62,-18099.1 1431.06,-18099.1 1492.51,-18099.2 1553.96,-18099.2 1615.4,-18099.2 1676.85,-18099.2 1738.29,-18099.2 1799.74,-18099.2 1861.19,-18099.3 1922.63,-18099.3 
  1984.08,-18099.3 2045.53,-18099.3 2106.97,-18099.3 2168.42,-18099.3 2229.86,-18099.4 2291.31,-18099.4 2352.76,-18099.4 
  "/>
<polyline clip-path="url(#clip792)" style="stroke:#8e971d; stroke-linecap:butt; stroke-linejoin:round; stroke-width:8; stroke-opacity:1; fill:none" points="
  140.696,1377.75 202.142,1377.98 263.588,1376.86 325.034,1375.53 386.48,1375.33 447.926,1375.33 509.372,1375.33 570.818,1375.34 632.265,1375.35 693.711,1375.36 
  755.157,1375.36 816.603,1375.37 878.049,1375.38 939.495,1375.39 1000.94,1375.39 1062.39,1375.4 1123.83,1375.41 1185.28,1375.42 1246.73,1375.42 1308.17,1375.43 
  1369.62,1375.44 1431.06,1375.45 1492.51,1375.45 1553.96,1375.46 1615.4,1375.47 1676.85,1375.48 1738.29,1375.48 1799.74,1375.49 1861.19,1375.5 1922.63,1375.51 
  1984.08,1375.51 2045.53,1375.52 2106.97,1375.53 2168.42,1375.54 2229.86,1375.54 2291.31,1375.55 2352.76,1375.56 
  "/>
<polyline clip-path="url(#clip792)" style="stroke:#00a8cb; stroke-linecap:butt; stroke-linejoin:round; stroke-width:8; stroke-opacity:1; fill:none" points="
  140.696,-10514.6 202.142,-10501.7 263.588,-10497.7 325.034,-10496.1 386.48,-10495.9 447.926,-10495.9 509.372,-10495.9 570.818,-10495.9 632.265,-10495.9 693.711,-10495.9 
  755.157,-10495.9 816.603,-10495.9 878.049,-10495.9 939.495,-10495.9 1000.94,-10495.9 1062.39,-10495.9 1123.83,-10495.9 1185.28,-10495.9 1246.73,-10495.9 1308.17,-10495.9 
  1369.62,-10495.9 1431.06,-10495.9 1492.51,-10495.9 1553.96,-10495.9 1615.4,-10495.9 1676.85,-10495.9 1738.29,-10495.9 1799.74,-10495.9 1861.19,-10496 1922.63,-10496 
  1984.08,-10496 2045.53,-10496 2106.97,-10496 2168.42,-10496 2229.86,-10496 2291.31,-10496 2352.76,-10496 
  "/>
<polyline clip-path="url(#clip792)" style="stroke:#9b7fe8; stroke-linecap:butt; stroke-linejoin:round; stroke-width:8; stroke-opacity:1; fill:none" points="
  140.696,1315.01 202.142,1307.37 263.588,1307.93 325.034,1308.52 386.48,1308.62 447.926,1308.64 509.372,1308.65 570.818,1308.67 632.265,1308.68 693.711,1308.7 
  755.157,1308.71 816.603,1308.73 878.049,1308.75 939.495,1308.76 1000.94,1308.78 1062.39,1308.79 1123.83,1308.81 1185.28,1308.82 1246.73,1308.84 1308.17,1308.85 
  1369.62,1308.87 1431.06,1308.89 1492.51,1308.9 1553.96,1308.92 1615.4,1308.93 1676.85,1308.95 1738.29,1308.96 1799.74,1308.98 1861.19,1309 1922.63,1309.01 
  1984.08,1309.03 2045.53,1309.04 2106.97,1309.06 2168.42,1309.07 2229.86,1309.09 2291.31,1309.1 2352.76,1309.12 
  "/>
<polyline clip-path="url(#clip792)" style="stroke:#608cf6; stroke-linecap:butt; stroke-linejoin:round; stroke-width:8; stroke-opacity:1; fill:none" points="
  140.696,1384.24 202.142,1382.81 263.588,1382.32 325.034,1382.12 386.48,1382.09 447.926,1382.09 509.372,1382.09 570.818,1382.08 632.265,1382.08 693.711,1382.08 
  755.157,1382.08 816.603,1382.07 878.049,1382.07 939.495,1382.07 1000.94,1382.07 1062.39,1382.06 1123.83,1382.06 1185.28,1382.06 1246.73,1382.05 1308.17,1382.05 
  1369.62,1382.05 1431.06,1382.05 1492.51,1382.04 1553.96,1382.04 1615.4,1382.04 1676.85,1382.04 1738.29,1382.03 1799.74,1382.03 1861.19,1382.03 1922.63,1382.03 
  1984.08,1382.02 2045.53,1382.02 2106.97,1382.02 2168.42,1382.02 2229.86,1382.01 2291.31,1382.01 2352.76,1382.01 
  "/>
<polyline clip-path="url(#clip792)" style="stroke:#f05f73; stroke-linecap:butt; stroke-linejoin:round; stroke-width:8; stroke-opacity:1; fill:none" points="
  140.696,-779.183 202.142,-720.094 263.588,-702.117 325.034,-694.544 386.48,-693.597 447.926,-693.476 509.372,-693.378 570.818,-693.281 632.265,-693.185 693.711,-693.088 
  755.157,-692.992 816.603,-692.896 878.049,-692.8 939.495,-692.704 1000.94,-692.608 1062.39,-692.512 1123.83,-692.416 1185.28,-692.32 1246.73,-692.224 1308.17,-692.129 
  1369.62,-692.033 1431.06,-691.937 1492.51,-691.842 1553.96,-691.746 1615.4,-691.651 1676.85,-691.555 1738.29,-691.46 1799.74,-691.364 1861.19,-691.269 1922.63,-691.174 
  1984.08,-691.078 2045.53,-690.983 2106.97,-690.888 2168.42,-690.793 2229.86,-690.698 2291.31,-690.603 2352.76,-690.508 
  "/>
<polyline clip-path="url(#clip792)" style="stroke:#dd64b5; stroke-linecap:butt; stroke-linejoin:round; stroke-width:8; stroke-opacity:1; fill:none" points="
  140.696,1297.7 202.142,1238.61 263.588,1220.64 325.034,1213.06 386.48,1212.12 447.926,1211.99 509.372,1211.9 570.818,1211.8 632.265,1211.7 693.711,1211.61 
  755.157,1211.51 816.603,1211.41 878.049,1211.32 939.495,1211.22 1000.94,1211.13 1062.39,1211.03 1123.83,1210.93 1185.28,1210.84 1246.73,1210.74 1308.17,1210.65 
  1369.62,1210.55 1431.06,1210.46 1492.51,1210.36 1553.96,1210.26 1615.4,1210.17 1676.85,1210.07 1738.29,1209.98 1799.74,1209.88 1861.19,1209.79 1922.63,1209.69 
  1984.08,1209.6 2045.53,1209.5 2106.97,1209.41 2168.42,1209.31 2229.86,1209.22 2291.31,1209.12 2352.76,1209.03 
  "/>
<polyline clip-path="url(#clip792)" style="stroke:#6b9e32; stroke-linecap:butt; stroke-linejoin:round; stroke-width:8; stroke-opacity:1; fill:none" points="
  140.696,1377.75 202.142,1382.27 263.588,1382.87 325.034,1383.07 386.48,1383.09 447.926,1383.1 509.372,1383.1 570.818,1383.1 632.265,1383.1 693.711,1383.11 
  755.157,1383.11 816.603,1383.11 878.049,1383.11 939.495,1383.12 1000.94,1383.12 1062.39,1383.12 1123.83,1383.12 1185.28,1383.12 1246.73,1383.13 1308.17,1383.13 
  1369.62,1383.13 1431.06,1383.13 1492.51,1383.14 1553.96,1383.14 1615.4,1383.14 1676.85,1383.14 1738.29,1383.14 1799.74,1383.15 1861.19,1383.15 1922.63,1383.15 
  1984.08,1383.15 2045.53,1383.16 2106.97,1383.16 2168.42,1383.16 2229.86,1383.16 2291.31,1383.16 2352.76,1383.17 
  "/>
<polyline clip-path="url(#clip792)" style="stroke:#009af9; stroke-linecap:butt; stroke-linejoin:round; stroke-width:8; stroke-opacity:1; fill:none" points="
  140.696,1282.99 202.142,1112.46 263.588,1109.53 325.034,1109.94 386.48,1110.03 447.926,1110.06 509.372,1110.1 570.818,1110.13 632.265,1110.16 693.711,1110.2 
  755.157,1110.23 816.603,1110.27 878.049,1110.3 939.495,1110.33 1000.94,1110.37 1062.39,1110.4 1123.83,1110.43 1185.28,1110.47 1246.73,1110.5 1308.17,1110.54 
  1369.62,1110.57 1431.06,1110.6 1492.51,1110.64 1553.96,1110.67 1615.4,1110.7 1676.85,1110.74 1738.29,1110.77 1799.74,1110.81 1861.19,1110.84 1922.63,1110.87 
  1984.08,1110.91 2045.53,1110.94 2106.97,1110.97 2168.42,1111.01 2229.86,1111.04 2291.31,1111.08 2352.76,1111.11 
  "/>
<path clip-path="url(#clip790)" d="
M1775.21 1026.23 L2279.02 1026.23 L2279.02 93.1086 L1775.21 93.1086  Z
  " fill="#ffffff" fill-rule="evenodd" fill-opacity="1"/>
<polyline clip-path="url(#clip790)" style="stroke:#000000; stroke-linecap:butt; stroke-linejoin:round; stroke-width:4; stroke-opacity:1; fill:none" points="
  1775.21,1026.23 2279.02,1026.23 2279.02,93.1086 1775.21,93.1086 1775.21,1026.23 
  "/>
<polyline clip-path="url(#clip790)" style="stroke:#009af9; stroke-linecap:butt; stroke-linejoin:round; stroke-width:4; stroke-opacity:1; fill:none" points="
  1799.78,144.949 1947.25,144.949 
  "/>
<path clip-path="url(#clip790)" d="M1987.85 130.84 Q1982.76 130.84 1979.75 134.636 Q1976.76 138.432 1976.76 144.983 Q1976.76 151.511 1979.75 155.307 Q1982.76 159.104 1987.85 159.104 Q1992.94 159.104 1995.91 155.307 Q1998.89 151.511 1998.89 144.983 Q1998.89 138.432 1995.91 134.636 Q1992.94 130.84 1987.85 130.84 M1987.85 127.044 Q1995.12 127.044 1999.47 131.928 Q2003.82 136.789 2003.82 144.983 Q2003.82 153.155 1999.47 158.039 Q1995.12 162.9 1987.85 162.9 Q1980.56 162.9 1976.18 158.039 Q1971.83 153.178 1971.83 144.983 Q1971.83 136.789 1976.18 131.928 Q1980.56 127.044 1987.85 127.044 Z" fill="#000000" fill-rule="evenodd" fill-opacity="1" /><path clip-path="url(#clip790)" d="M2025.72 143.594 Q2029.08 144.312 2030.95 146.581 Q2032.85 148.849 2032.85 152.182 Q2032.85 157.298 2029.33 160.099 Q2025.81 162.9 2019.33 162.9 Q2017.16 162.9 2014.84 162.46 Q2012.55 162.043 2010.1 161.187 L2010.1 156.673 Q2012.04 157.807 2014.36 158.386 Q2016.67 158.965 2019.19 158.965 Q2023.59 158.965 2025.88 157.229 Q2028.2 155.493 2028.2 152.182 Q2028.2 149.127 2026.05 147.414 Q2023.92 145.678 2020.1 145.678 L2016.07 145.678 L2016.07 141.835 L2020.28 141.835 Q2023.73 141.835 2025.56 140.469 Q2027.39 139.081 2027.39 136.488 Q2027.39 133.826 2025.49 132.414 Q2023.61 130.979 2020.1 130.979 Q2018.17 130.979 2015.98 131.395 Q2013.78 131.812 2011.14 132.692 L2011.14 128.525 Q2013.8 127.784 2016.11 127.414 Q2018.45 127.044 2020.51 127.044 Q2025.84 127.044 2028.94 129.474 Q2032.04 131.882 2032.04 136.002 Q2032.04 138.872 2030.4 140.863 Q2028.75 142.831 2025.72 143.594 Z" fill="#000000" fill-rule="evenodd" fill-opacity="1" /><path clip-path="url(#clip790)" d="M2051.35 126.257 Q2048.24 131.581 2046.74 136.789 Q2045.24 141.997 2045.24 147.344 Q2045.24 152.692 2046.74 157.946 Q2048.27 163.178 2051.35 168.479 L2047.64 168.479 Q2044.17 163.039 2042.43 157.784 Q2040.72 152.53 2040.72 147.344 Q2040.72 142.182 2042.43 136.951 Q2044.15 131.72 2047.64 126.257 L2051.35 126.257 Z" fill="#000000" fill-rule="evenodd" fill-opacity="1" /><path clip-path="url(#clip790)" d="M2063.82 128.942 L2063.82 136.303 L2072.6 136.303 L2072.6 139.613 L2063.82 139.613 L2063.82 153.687 Q2063.82 156.858 2064.68 157.761 Q2065.56 158.664 2068.22 158.664 L2072.6 158.664 L2072.6 162.229 L2068.22 162.229 Q2063.29 162.229 2061.42 160.4 Q2059.54 158.548 2059.54 153.687 L2059.54 139.613 L2056.42 139.613 L2056.42 136.303 L2059.54 136.303 L2059.54 128.942 L2063.82 128.942 Z" fill="#000000" fill-rule="evenodd" fill-opacity="1" /><path clip-path="url(#clip790)" d="M2077.53 126.257 L2081.23 126.257 Q2084.7 131.72 2086.42 136.951 Q2088.15 142.182 2088.15 147.344 Q2088.15 152.53 2086.42 157.784 Q2084.7 163.039 2081.23 168.479 L2077.53 168.479 Q2080.61 163.178 2082.11 157.946 Q2083.64 152.692 2083.64 147.344 Q2083.64 141.997 2082.11 136.789 Q2080.61 131.581 2077.53 126.257 Z" fill="#000000" fill-rule="evenodd" fill-opacity="1" /><polyline clip-path="url(#clip790)" style="stroke:#e26f46; stroke-linecap:butt; stroke-linejoin:round; stroke-width:4; stroke-opacity:1; fill:none" points="
  1799.78,196.789 1947.25,196.789 
  "/>
<path clip-path="url(#clip790)" d="M1987.85 182.68 Q1982.76 182.68 1979.75 186.476 Q1976.76 190.272 1976.76 196.823 Q1976.76 203.351 1979.75 207.147 Q1982.76 210.944 1987.85 210.944 Q1992.94 210.944 1995.91 207.147 Q1998.89 203.351 1998.89 196.823 Q1998.89 190.272 1995.91 186.476 Q1992.94 182.68 1987.85 182.68 M1987.85 178.884 Q1995.12 178.884 1999.47 183.768 Q2003.82 188.629 2003.82 196.823 Q2003.82 204.995 1999.47 209.879 Q1995.12 214.74 1987.85 214.74 Q1980.56 214.74 1976.18 209.879 Q1971.83 205.018 1971.83 196.823 Q1971.83 188.629 1976.18 183.768 Q1980.56 178.884 1987.85 178.884 Z" fill="#000000" fill-rule="evenodd" fill-opacity="1" /><path clip-path="url(#clip790)" d="M2011.14 179.509 L2015.81 179.509 L2015.81 193.675 L2032.8 193.675 L2032.8 179.509 L2037.48 179.509 L2037.48 214.069 L2032.8 214.069 L2032.8 197.61 L2015.81 197.61 L2015.81 214.069 L2011.14 214.069 L2011.14 179.509 Z" fill="#000000" fill-rule="evenodd" fill-opacity="1" /><path clip-path="url(#clip790)" d="M2056.83 178.097 Q2053.73 183.421 2052.23 188.629 Q2050.72 193.837 2050.72 199.184 Q2050.72 204.532 2052.23 209.786 Q2053.75 215.018 2056.83 220.319 L2053.13 220.319 Q2049.66 214.879 2047.92 209.624 Q2046.21 204.37 2046.21 199.184 Q2046.21 194.022 2047.92 188.791 Q2049.63 183.56 2053.13 178.097 L2056.83 178.097 Z" fill="#000000" fill-rule="evenodd" fill-opacity="1" /><path clip-path="url(#clip790)" d="M2069.31 180.782 L2069.31 188.143 L2078.08 188.143 L2078.08 191.453 L2069.31 191.453 L2069.31 205.527 Q2069.31 208.698 2070.17 209.601 Q2071.05 210.504 2073.71 210.504 L2078.08 210.504 L2078.08 214.069 L2073.71 214.069 Q2068.78 214.069 2066.9 212.24 Q2065.03 210.388 2065.03 205.527 L2065.03 191.453 L2061.9 191.453 L2061.9 188.143 L2065.03 188.143 L2065.03 180.782 L2069.31 180.782 Z" fill="#000000" fill-rule="evenodd" fill-opacity="1" /><path clip-path="url(#clip790)" d="M2083.01 178.097 L2086.72 178.097 Q2090.19 183.56 2091.9 188.791 Q2093.64 194.022 2093.64 199.184 Q2093.64 204.37 2091.9 209.624 Q2090.19 214.879 2086.72 220.319 L2083.01 220.319 Q2086.09 215.018 2087.6 209.786 Q2089.12 204.532 2089.12 199.184 Q2089.12 193.837 2087.6 188.629 Q2086.09 183.421 2083.01 178.097 Z" fill="#000000" fill-rule="evenodd" fill-opacity="1" /><polyline clip-path="url(#clip790)" style="stroke:#3da44d; stroke-linecap:butt; stroke-linejoin:round; stroke-width:4; stroke-opacity:1; fill:none" points="
  1799.78,248.629 1947.25,248.629 
  "/>
<path clip-path="url(#clip790)" d="M1971.83 231.349 L1976.51 231.349 L1976.51 245.515 L1993.5 245.515 L1993.5 231.349 L1998.18 231.349 L1998.18 265.909 L1993.5 265.909 L1993.5 249.45 L1976.51 249.45 L1976.51 265.909 L1971.83 265.909 L1971.83 231.349 Z" fill="#000000" fill-rule="evenodd" fill-opacity="1" /><path clip-path="url(#clip790)" d="M2021.51 234.52 Q2016.42 234.52 2013.41 238.316 Q2010.42 242.112 2010.42 248.663 Q2010.42 255.191 2013.41 258.987 Q2016.42 262.784 2021.51 262.784 Q2026.6 262.784 2029.56 258.987 Q2032.55 255.191 2032.55 248.663 Q2032.55 242.112 2029.56 238.316 Q2026.6 234.52 2021.51 234.52 M2021.51 230.724 Q2028.78 230.724 2033.13 235.608 Q2037.48 240.469 2037.48 248.663 Q2037.48 256.835 2033.13 261.719 Q2028.78 266.58 2021.51 266.58 Q2014.22 266.58 2009.84 261.719 Q2005.49 256.858 2005.49 248.663 Q2005.49 240.469 2009.84 235.608 Q2014.22 230.724 2021.51 230.724 Z" fill="#000000" fill-rule="evenodd" fill-opacity="1" /><path clip-path="url(#clip790)" d="M2049.24 261.973 L2065.56 261.973 L2065.56 265.909 L2043.61 265.909 L2043.61 261.973 Q2046.28 259.219 2050.86 254.589 Q2055.47 249.936 2056.65 248.594 Q2058.89 246.071 2059.77 244.335 Q2060.67 242.575 2060.67 240.886 Q2060.67 238.131 2058.73 236.395 Q2056.81 234.659 2053.71 234.659 Q2051.51 234.659 2049.05 235.423 Q2046.62 236.187 2043.85 237.737 L2043.85 233.015 Q2046.67 231.881 2049.12 231.302 Q2051.58 230.724 2053.61 230.724 Q2058.98 230.724 2062.18 233.409 Q2065.37 236.094 2065.37 240.585 Q2065.37 242.714 2064.56 244.636 Q2063.78 246.534 2061.67 249.126 Q2061.09 249.798 2057.99 253.015 Q2054.89 256.21 2049.24 261.973 Z" fill="#000000" fill-rule="evenodd" fill-opacity="1" /><path clip-path="url(#clip790)" d="M2085 229.937 Q2081.9 235.261 2080.4 240.469 Q2078.89 245.677 2078.89 251.024 Q2078.89 256.372 2080.4 261.626 Q2081.92 266.858 2085 272.159 L2081.3 272.159 Q2077.83 266.719 2076.09 261.464 Q2074.38 256.21 2074.38 251.024 Q2074.38 245.862 2076.09 240.631 Q2077.8 235.4 2081.3 229.937 L2085 229.937 Z" fill="#000000" fill-rule="evenodd" fill-opacity="1" /><path clip-path="url(#clip790)" d="M2097.48 232.622 L2097.48 239.983 L2106.25 239.983 L2106.25 243.293 L2097.48 243.293 L2097.48 257.367 Q2097.48 260.538 2098.34 261.441 Q2099.22 262.344 2101.88 262.344 L2106.25 262.344 L2106.25 265.909 L2101.88 265.909 Q2096.95 265.909 2095.07 264.08 Q2093.2 262.228 2093.2 257.367 L2093.2 243.293 L2090.07 243.293 L2090.07 239.983 L2093.2 239.983 L2093.2 232.622 L2097.48 232.622 Z" fill="#000000" fill-rule="evenodd" fill-opacity="1" /><path clip-path="url(#clip790)" d="M2111.18 229.937 L2114.89 229.937 Q2118.36 235.4 2120.07 240.631 Q2121.81 245.862 2121.81 251.024 Q2121.81 256.21 2120.07 261.464 Q2118.36 266.719 2114.89 272.159 L2111.18 272.159 Q2114.26 266.858 2115.77 261.626 Q2117.29 256.372 2117.29 251.024 Q2117.29 245.677 2115.77 240.469 Q2114.26 235.261 2111.18 229.937 Z" fill="#000000" fill-rule="evenodd" fill-opacity="1" /><polyline clip-path="url(#clip790)" style="stroke:#c271d2; stroke-linecap:butt; stroke-linejoin:round; stroke-width:4; stroke-opacity:1; fill:none" points="
  1799.78,300.469 1947.25,300.469 
  "/>
<path clip-path="url(#clip790)" d="M1987.85 286.36 Q1982.76 286.36 1979.75 290.156 Q1976.76 293.952 1976.76 300.503 Q1976.76 307.031 1979.75 310.827 Q1982.76 314.624 1987.85 314.624 Q1992.94 314.624 1995.91 310.827 Q1998.89 307.031 1998.89 300.503 Q1998.89 293.952 1995.91 290.156 Q1992.94 286.36 1987.85 286.36 M1987.85 282.564 Q1995.12 282.564 1999.47 287.448 Q2003.82 292.309 2003.82 300.503 Q2003.82 308.675 1999.47 313.559 Q1995.12 318.42 1987.85 318.42 Q1980.56 318.42 1976.18 313.559 Q1971.83 308.698 1971.83 300.503 Q1971.83 292.309 1976.18 287.448 Q1980.56 282.564 1987.85 282.564 Z" fill="#000000" fill-rule="evenodd" fill-opacity="1" /><path clip-path="url(#clip790)" d="M2015.58 313.813 L2031.9 313.813 L2031.9 317.749 L2009.96 317.749 L2009.96 313.813 Q2012.62 311.059 2017.2 306.429 Q2021.81 301.776 2022.99 300.434 Q2025.24 297.911 2026.11 296.175 Q2027.02 294.415 2027.02 292.726 Q2027.02 289.971 2025.07 288.235 Q2023.15 286.499 2020.05 286.499 Q2017.85 286.499 2015.4 287.263 Q2012.97 288.027 2010.19 289.577 L2010.19 284.855 Q2013.01 283.721 2015.47 283.142 Q2017.92 282.564 2019.96 282.564 Q2025.33 282.564 2028.52 285.249 Q2031.72 287.934 2031.72 292.425 Q2031.72 294.554 2030.91 296.476 Q2030.12 298.374 2028.01 300.966 Q2027.43 301.638 2024.33 304.855 Q2021.23 308.05 2015.58 313.813 Z" fill="#000000" fill-rule="evenodd" fill-opacity="1" /><path clip-path="url(#clip790)" d="M2051.35 281.777 Q2048.24 287.101 2046.74 292.309 Q2045.24 297.517 2045.24 302.864 Q2045.24 308.212 2046.74 313.466 Q2048.27 318.698 2051.35 323.999 L2047.64 323.999 Q2044.17 318.559 2042.43 313.304 Q2040.72 308.05 2040.72 302.864 Q2040.72 297.702 2042.43 292.471 Q2044.15 287.24 2047.64 281.777 L2051.35 281.777 Z" fill="#000000" fill-rule="evenodd" fill-opacity="1" /><path clip-path="url(#clip790)" d="M2063.82 284.462 L2063.82 291.823 L2072.6 291.823 L2072.6 295.133 L2063.82 295.133 L2063.82 309.207 Q2063.82 312.378 2064.68 313.281 Q2065.56 314.184 2068.22 314.184 L2072.6 314.184 L2072.6 317.749 L2068.22 317.749 Q2063.29 317.749 2061.42 315.92 Q2059.54 314.068 2059.54 309.207 L2059.54 295.133 L2056.42 295.133 L2056.42 291.823 L2059.54 291.823 L2059.54 284.462 L2063.82 284.462 Z" fill="#000000" fill-rule="evenodd" fill-opacity="1" /><path clip-path="url(#clip790)" d="M2077.53 281.777 L2081.23 281.777 Q2084.7 287.24 2086.42 292.471 Q2088.15 297.702 2088.15 302.864 Q2088.15 308.05 2086.42 313.304 Q2084.7 318.559 2081.23 323.999 L2077.53 323.999 Q2080.61 318.698 2082.11 313.466 Q2083.64 308.212 2083.64 302.864 Q2083.64 297.517 2082.11 292.309 Q2080.61 287.101 2077.53 281.777 Z" fill="#000000" fill-rule="evenodd" fill-opacity="1" /><polyline clip-path="url(#clip790)" style="stroke:#ac8d18; stroke-linecap:butt; stroke-linejoin:round; stroke-width:4; stroke-opacity:1; fill:none" points="
  1799.78,352.309 1947.25,352.309 
  "/>
<path clip-path="url(#clip790)" d="M1971.83 335.029 L1978.13 335.029 L1993.45 363.941 L1993.45 335.029 L1997.99 335.029 L1997.99 369.589 L1991.69 369.589 L1976.37 340.677 L1976.37 369.589 L1971.83 369.589 L1971.83 335.029 Z" fill="#000000" fill-rule="evenodd" fill-opacity="1" /><path clip-path="url(#clip790)" d="M2021.32 338.2 Q2016.23 338.2 2013.22 341.996 Q2010.24 345.792 2010.24 352.343 Q2010.24 358.871 2013.22 362.667 Q2016.23 366.464 2021.32 366.464 Q2026.42 366.464 2029.38 362.667 Q2032.36 358.871 2032.36 352.343 Q2032.36 345.792 2029.38 341.996 Q2026.42 338.2 2021.32 338.2 M2021.32 334.404 Q2028.59 334.404 2032.94 339.288 Q2037.3 344.149 2037.3 352.343 Q2037.3 360.515 2032.94 365.399 Q2028.59 370.26 2021.32 370.26 Q2014.03 370.26 2009.66 365.399 Q2005.3 360.538 2005.3 352.343 Q2005.3 344.149 2009.66 339.288 Q2014.03 334.404 2021.32 334.404 Z" fill="#000000" fill-rule="evenodd" fill-opacity="1" /><path clip-path="url(#clip790)" d="M2054.66 333.617 Q2051.55 338.941 2050.05 344.149 Q2048.55 349.357 2048.55 354.704 Q2048.55 360.052 2050.05 365.306 Q2051.58 370.538 2054.66 375.839 L2050.95 375.839 Q2047.48 370.399 2045.74 365.144 Q2044.03 359.89 2044.03 354.704 Q2044.03 349.542 2045.74 344.311 Q2047.46 339.08 2050.95 333.617 L2054.66 333.617 Z" fill="#000000" fill-rule="evenodd" fill-opacity="1" /><path clip-path="url(#clip790)" d="M2067.13 336.302 L2067.13 343.663 L2075.91 343.663 L2075.91 346.973 L2067.13 346.973 L2067.13 361.047 Q2067.13 364.218 2067.99 365.121 Q2068.87 366.024 2071.53 366.024 L2075.91 366.024 L2075.91 369.589 L2071.53 369.589 Q2066.6 369.589 2064.73 367.76 Q2062.85 365.908 2062.85 361.047 L2062.85 346.973 L2059.73 346.973 L2059.73 343.663 L2062.85 343.663 L2062.85 336.302 L2067.13 336.302 Z" fill="#000000" fill-rule="evenodd" fill-opacity="1" /><path clip-path="url(#clip790)" d="M2080.84 333.617 L2084.54 333.617 Q2088.01 339.08 2089.73 344.311 Q2091.46 349.542 2091.46 354.704 Q2091.46 359.89 2089.73 365.144 Q2088.01 370.399 2084.54 375.839 L2080.84 375.839 Q2083.92 370.538 2085.42 365.306 Q2086.95 360.052 2086.95 354.704 Q2086.95 349.357 2085.42 344.149 Q2083.92 338.941 2080.84 333.617 Z" fill="#000000" fill-rule="evenodd" fill-opacity="1" /><polyline clip-path="url(#clip790)" style="stroke:#00a9ad; stroke-linecap:butt; stroke-linejoin:round; stroke-width:4; stroke-opacity:1; fill:none" points="
  1799.78,404.149 1947.25,404.149 
  "/>
<path clip-path="url(#clip790)" d="M1971.83 386.869 L1978.13 386.869 L1993.45 415.781 L1993.45 386.869 L1997.99 386.869 L1997.99 421.429 L1991.69 421.429 L1976.37 392.517 L1976.37 421.429 L1971.83 421.429 L1971.83 386.869 Z" fill="#000000" fill-rule="evenodd" fill-opacity="1" /><path clip-path="url(#clip790)" d="M2021.32 390.04 Q2016.23 390.04 2013.22 393.836 Q2010.24 397.632 2010.24 404.183 Q2010.24 410.711 2013.22 414.507 Q2016.23 418.304 2021.32 418.304 Q2026.42 418.304 2029.38 414.507 Q2032.36 410.711 2032.36 404.183 Q2032.36 397.632 2029.38 393.836 Q2026.42 390.04 2021.32 390.04 M2021.32 386.244 Q2028.59 386.244 2032.94 391.128 Q2037.3 395.989 2037.3 404.183 Q2037.3 412.355 2032.94 417.239 Q2028.59 422.1 2021.32 422.1 Q2014.03 422.1 2009.66 417.239 Q2005.3 412.378 2005.3 404.183 Q2005.3 395.989 2009.66 391.128 Q2014.03 386.244 2021.32 386.244 Z" fill="#000000" fill-rule="evenodd" fill-opacity="1" /><path clip-path="url(#clip790)" d="M2049.05 417.493 L2065.37 417.493 L2065.37 421.429 L2043.43 421.429 L2043.43 417.493 Q2046.09 414.739 2050.67 410.109 Q2055.28 405.456 2056.46 404.114 Q2058.71 401.591 2059.59 399.855 Q2060.49 398.095 2060.49 396.406 Q2060.49 393.651 2058.55 391.915 Q2056.62 390.179 2053.52 390.179 Q2051.32 390.179 2048.87 390.943 Q2046.44 391.707 2043.66 393.257 L2043.66 388.535 Q2046.49 387.401 2048.94 386.822 Q2051.39 386.244 2053.43 386.244 Q2058.8 386.244 2061.99 388.929 Q2065.19 391.614 2065.19 396.105 Q2065.19 398.234 2064.38 400.156 Q2063.59 402.054 2061.48 404.646 Q2060.91 405.318 2057.8 408.535 Q2054.7 411.73 2049.05 417.493 Z" fill="#000000" fill-rule="evenodd" fill-opacity="1" /><path clip-path="url(#clip790)" d="M2084.82 385.457 Q2081.72 390.781 2080.21 395.989 Q2078.71 401.197 2078.71 406.544 Q2078.71 411.892 2080.21 417.146 Q2081.74 422.378 2084.82 427.679 L2081.11 427.679 Q2077.64 422.239 2075.91 416.984 Q2074.19 411.73 2074.19 406.544 Q2074.19 401.382 2075.91 396.151 Q2077.62 390.92 2081.11 385.457 L2084.82 385.457 Z" fill="#000000" fill-rule="evenodd" fill-opacity="1" /><path clip-path="url(#clip790)" d="M2097.29 388.142 L2097.29 395.503 L2106.07 395.503 L2106.07 398.813 L2097.29 398.813 L2097.29 412.887 Q2097.29 416.058 2098.15 416.961 Q2099.03 417.864 2101.69 417.864 L2106.07 417.864 L2106.07 421.429 L2101.69 421.429 Q2096.76 421.429 2094.89 419.6 Q2093.01 417.748 2093.01 412.887 L2093.01 398.813 L2089.89 398.813 L2089.89 395.503 L2093.01 395.503 L2093.01 388.142 L2097.29 388.142 Z" fill="#000000" fill-rule="evenodd" fill-opacity="1" /><path clip-path="url(#clip790)" d="M2111 385.457 L2114.7 385.457 Q2118.17 390.92 2119.89 396.151 Q2121.62 401.382 2121.62 406.544 Q2121.62 411.73 2119.89 416.984 Q2118.17 422.239 2114.7 427.679 L2111 427.679 Q2114.08 422.378 2115.58 417.146 Q2117.11 411.892 2117.11 406.544 Q2117.11 401.197 2115.58 395.989 Q2114.08 390.781 2111 385.457 Z" fill="#000000" fill-rule="evenodd" fill-opacity="1" /><polyline clip-path="url(#clip790)" style="stroke:#ed5d92; stroke-linecap:butt; stroke-linejoin:round; stroke-width:4; stroke-opacity:1; fill:none" points="
  1799.78,455.989 1947.25,455.989 
  "/>
<path clip-path="url(#clip790)" d="M1999.7 441.371 L1999.7 446.301 Q1997.34 444.102 1994.66 443.014 Q1991.99 441.926 1988.99 441.926 Q1983.06 441.926 1979.91 445.56 Q1976.76 449.172 1976.76 456.023 Q1976.76 462.852 1979.91 466.486 Q1983.06 470.097 1988.99 470.097 Q1991.99 470.097 1994.66 469.009 Q1997.34 467.921 1999.7 465.722 L1999.7 470.607 Q1997.25 472.273 1994.49 473.107 Q1991.76 473.94 1988.71 473.94 Q1980.86 473.94 1976.35 469.148 Q1971.83 464.333 1971.83 456.023 Q1971.83 447.69 1976.35 442.898 Q1980.86 438.084 1988.71 438.084 Q1991.81 438.084 1994.54 438.917 Q1997.3 439.727 1999.7 441.371 Z" fill="#000000" fill-rule="evenodd" fill-opacity="1" /><path clip-path="url(#clip790)" d="M2006.93 438.709 L2011.6 438.709 L2011.6 452.875 L2028.59 452.875 L2028.59 438.709 L2033.27 438.709 L2033.27 473.269 L2028.59 473.269 L2028.59 456.81 L2011.6 456.81 L2011.6 473.269 L2006.93 473.269 L2006.93 438.709 Z" fill="#000000" fill-rule="evenodd" fill-opacity="1" /><path clip-path="url(#clip790)" d="M2055.84 442.783 L2044.03 461.232 L2055.84 461.232 L2055.84 442.783 M2054.61 438.709 L2060.49 438.709 L2060.49 461.232 L2065.42 461.232 L2065.42 465.121 L2060.49 465.121 L2060.49 473.269 L2055.84 473.269 L2055.84 465.121 L2040.24 465.121 L2040.24 460.607 L2054.61 438.709 Z" fill="#000000" fill-rule="evenodd" fill-opacity="1" /><path clip-path="url(#clip790)" d="M2082.78 437.297 Q2079.68 442.621 2078.17 447.829 Q2076.67 453.037 2076.67 458.384 Q2076.67 463.732 2078.17 468.986 Q2079.7 474.218 2082.78 479.519 L2079.08 479.519 Q2075.61 474.079 2073.87 468.824 Q2072.16 463.57 2072.16 458.384 Q2072.16 453.222 2073.87 447.991 Q2075.58 442.76 2079.08 437.297 L2082.78 437.297 Z" fill="#000000" fill-rule="evenodd" fill-opacity="1" /><path clip-path="url(#clip790)" d="M2095.26 439.982 L2095.26 447.343 L2104.03 447.343 L2104.03 450.653 L2095.26 450.653 L2095.26 464.727 Q2095.26 467.898 2096.11 468.801 Q2096.99 469.704 2099.66 469.704 L2104.03 469.704 L2104.03 473.269 L2099.66 473.269 Q2094.73 473.269 2092.85 471.44 Q2090.98 469.588 2090.98 464.727 L2090.98 450.653 L2087.85 450.653 L2087.85 447.343 L2090.98 447.343 L2090.98 439.982 L2095.26 439.982 Z" fill="#000000" fill-rule="evenodd" fill-opacity="1" /><path clip-path="url(#clip790)" d="M2108.96 437.297 L2112.67 437.297 Q2116.14 442.76 2117.85 447.991 Q2119.59 453.222 2119.59 458.384 Q2119.59 463.57 2117.85 468.824 Q2116.14 474.079 2112.67 479.519 L2108.96 479.519 Q2112.04 474.218 2113.54 468.986 Q2115.07 463.732 2115.07 458.384 Q2115.07 453.037 2113.54 447.829 Q2112.04 442.621 2108.96 437.297 Z" fill="#000000" fill-rule="evenodd" fill-opacity="1" /><polyline clip-path="url(#clip790)" style="stroke:#c68125; stroke-linecap:butt; stroke-linejoin:round; stroke-width:4; stroke-opacity:1; fill:none" points="
  1799.78,507.829 1947.25,507.829 
  "/>
<path clip-path="url(#clip790)" d="M1999.7 493.211 L1999.7 498.141 Q1997.34 495.942 1994.66 494.854 Q1991.99 493.766 1988.99 493.766 Q1983.06 493.766 1979.91 497.4 Q1976.76 501.012 1976.76 507.863 Q1976.76 514.692 1979.91 518.326 Q1983.06 521.937 1988.99 521.937 Q1991.99 521.937 1994.66 520.849 Q1997.34 519.761 1999.7 517.562 L1999.7 522.447 Q1997.25 524.113 1994.49 524.947 Q1991.76 525.78 1988.71 525.78 Q1980.86 525.78 1976.35 520.988 Q1971.83 516.173 1971.83 507.863 Q1971.83 499.53 1976.35 494.738 Q1980.86 489.924 1988.71 489.924 Q1991.81 489.924 1994.54 490.757 Q1997.3 491.567 1999.7 493.211 Z" fill="#000000" fill-rule="evenodd" fill-opacity="1" /><path clip-path="url(#clip790)" d="M2006.93 490.549 L2011.6 490.549 L2011.6 504.715 L2028.59 504.715 L2028.59 490.549 L2033.27 490.549 L2033.27 525.109 L2028.59 525.109 L2028.59 508.65 L2011.6 508.65 L2011.6 525.109 L2006.93 525.109 L2006.93 490.549 Z" fill="#000000" fill-rule="evenodd" fill-opacity="1" /><path clip-path="url(#clip790)" d="M2057.16 506.474 Q2060.51 507.192 2062.39 509.461 Q2064.29 511.729 2064.29 515.062 Q2064.29 520.178 2060.77 522.979 Q2057.25 525.78 2050.77 525.78 Q2048.59 525.78 2046.28 525.34 Q2043.99 524.923 2041.53 524.067 L2041.53 519.553 Q2043.48 520.687 2045.79 521.266 Q2048.11 521.845 2050.63 521.845 Q2055.03 521.845 2057.32 520.109 Q2059.63 518.373 2059.63 515.062 Q2059.63 512.007 2057.48 510.294 Q2055.35 508.558 2051.53 508.558 L2047.5 508.558 L2047.5 504.715 L2051.72 504.715 Q2055.17 504.715 2056.99 503.349 Q2058.82 501.961 2058.82 499.368 Q2058.82 496.706 2056.92 495.294 Q2055.05 493.859 2051.53 493.859 Q2049.61 493.859 2047.41 494.275 Q2045.21 494.692 2042.57 495.572 L2042.57 491.405 Q2045.24 490.664 2047.55 490.294 Q2049.89 489.924 2051.95 489.924 Q2057.27 489.924 2060.37 492.354 Q2063.48 494.762 2063.48 498.882 Q2063.48 501.752 2061.83 503.743 Q2060.19 505.711 2057.16 506.474 Z" fill="#000000" fill-rule="evenodd" fill-opacity="1" /><path clip-path="url(#clip790)" d="M2086.76 493.72 Q2081.67 493.72 2078.66 497.516 Q2075.67 501.312 2075.67 507.863 Q2075.67 514.391 2078.66 518.187 Q2081.67 521.984 2086.76 521.984 Q2091.86 521.984 2094.82 518.187 Q2097.8 514.391 2097.8 507.863 Q2097.8 501.312 2094.82 497.516 Q2091.86 493.72 2086.76 493.72 M2086.76 489.924 Q2094.03 489.924 2098.38 494.808 Q2102.73 499.669 2102.73 507.863 Q2102.73 516.035 2098.38 520.919 Q2094.03 525.78 2086.76 525.78 Q2079.47 525.78 2075.1 520.919 Q2070.74 516.058 2070.74 507.863 Q2070.74 499.669 2075.1 494.808 Q2079.47 489.924 2086.76 489.924 Z" fill="#000000" fill-rule="evenodd" fill-opacity="1" /><path clip-path="url(#clip790)" d="M2114.49 521.173 L2130.81 521.173 L2130.81 525.109 L2108.87 525.109 L2108.87 521.173 Q2111.53 518.419 2116.11 513.789 Q2120.72 509.136 2121.9 507.794 Q2124.15 505.271 2125.03 503.535 Q2125.93 501.775 2125.93 500.086 Q2125.93 497.331 2123.98 495.595 Q2122.06 493.859 2118.96 493.859 Q2116.76 493.859 2114.31 494.623 Q2111.88 495.387 2109.1 496.937 L2109.1 492.215 Q2111.92 491.081 2114.38 490.502 Q2116.83 489.924 2118.87 489.924 Q2124.24 489.924 2127.43 492.609 Q2130.63 495.294 2130.63 499.785 Q2130.63 501.914 2129.82 503.836 Q2129.03 505.734 2126.92 508.326 Q2126.35 508.998 2123.24 512.215 Q2120.14 515.41 2114.49 521.173 Z" fill="#000000" fill-rule="evenodd" fill-opacity="1" /><path clip-path="url(#clip790)" d="M2150.26 489.137 Q2147.16 494.461 2145.65 499.669 Q2144.15 504.877 2144.15 510.224 Q2144.15 515.572 2145.65 520.826 Q2147.18 526.058 2150.26 531.359 L2146.55 531.359 Q2143.08 525.919 2141.35 520.664 Q2139.63 515.41 2139.63 510.224 Q2139.63 505.062 2141.35 499.831 Q2143.06 494.6 2146.55 489.137 L2150.26 489.137 Z" fill="#000000" fill-rule="evenodd" fill-opacity="1" /><path clip-path="url(#clip790)" d="M2162.73 491.822 L2162.73 499.183 L2171.51 499.183 L2171.51 502.493 L2162.73 502.493 L2162.73 516.567 Q2162.73 519.738 2163.59 520.641 Q2164.47 521.544 2167.13 521.544 L2171.51 521.544 L2171.51 525.109 L2167.13 525.109 Q2162.2 525.109 2160.33 523.28 Q2158.45 521.428 2158.45 516.567 L2158.45 502.493 L2155.33 502.493 L2155.33 499.183 L2158.45 499.183 L2158.45 491.822 L2162.73 491.822 Z" fill="#000000" fill-rule="evenodd" fill-opacity="1" /><path clip-path="url(#clip790)" d="M2176.44 489.137 L2180.14 489.137 Q2183.61 494.6 2185.33 499.831 Q2187.06 505.062 2187.06 510.224 Q2187.06 515.41 2185.33 520.664 Q2183.61 525.919 2180.14 531.359 L2176.44 531.359 Q2179.52 526.058 2181.02 520.826 Q2182.55 515.572 2182.55 510.224 Q2182.55 504.877 2181.02 499.669 Q2179.52 494.461 2176.44 489.137 Z" fill="#000000" fill-rule="evenodd" fill-opacity="1" /><polyline clip-path="url(#clip790)" style="stroke:#00a98d; stroke-linecap:butt; stroke-linejoin:round; stroke-width:4; stroke-opacity:1; fill:none" points="
  1799.78,559.669 1947.25,559.669 
  "/>
<path clip-path="url(#clip790)" d="M1971.83 542.389 L1976.51 542.389 L1976.51 556.555 L1993.5 556.555 L1993.5 542.389 L1998.18 542.389 L1998.18 576.949 L1993.5 576.949 L1993.5 560.49 L1976.51 560.49 L1976.51 576.949 L1971.83 576.949 L1971.83 542.389 Z" fill="#000000" fill-rule="evenodd" fill-opacity="1" /><path clip-path="url(#clip790)" d="M2011.93 573.013 L2028.24 573.013 L2028.24 576.949 L2006.3 576.949 L2006.3 573.013 Q2008.96 570.259 2013.55 565.629 Q2018.15 560.976 2019.33 559.634 Q2021.58 557.111 2022.46 555.375 Q2023.36 553.615 2023.36 551.926 Q2023.36 549.171 2021.42 547.435 Q2019.49 545.699 2016.39 545.699 Q2014.19 545.699 2011.74 546.463 Q2009.31 547.227 2006.53 548.777 L2006.53 544.055 Q2009.36 542.921 2011.81 542.342 Q2014.26 541.764 2016.3 541.764 Q2021.67 541.764 2024.86 544.449 Q2028.06 547.134 2028.06 551.625 Q2028.06 553.754 2027.25 555.676 Q2026.46 557.574 2024.36 560.166 Q2023.78 560.838 2020.67 564.055 Q2017.57 567.25 2011.93 573.013 Z" fill="#000000" fill-rule="evenodd" fill-opacity="1" /><path clip-path="url(#clip790)" d="M2051.67 545.56 Q2046.58 545.56 2043.57 549.356 Q2040.58 553.152 2040.58 559.703 Q2040.58 566.231 2043.57 570.027 Q2046.58 573.824 2051.67 573.824 Q2056.76 573.824 2059.73 570.027 Q2062.71 566.231 2062.71 559.703 Q2062.71 553.152 2059.73 549.356 Q2056.76 545.56 2051.67 545.56 M2051.67 541.764 Q2058.94 541.764 2063.29 546.648 Q2067.64 551.509 2067.64 559.703 Q2067.64 567.875 2063.29 572.759 Q2058.94 577.62 2051.67 577.62 Q2044.38 577.62 2040 572.759 Q2035.65 567.898 2035.65 559.703 Q2035.65 551.509 2040 546.648 Q2044.38 541.764 2051.67 541.764 Z" fill="#000000" fill-rule="evenodd" fill-opacity="1" /><path clip-path="url(#clip790)" d="M2085 540.977 Q2081.9 546.301 2080.4 551.509 Q2078.89 556.717 2078.89 562.064 Q2078.89 567.412 2080.4 572.666 Q2081.92 577.898 2085 583.199 L2081.3 583.199 Q2077.83 577.759 2076.09 572.504 Q2074.38 567.25 2074.38 562.064 Q2074.38 556.902 2076.09 551.671 Q2077.8 546.44 2081.3 540.977 L2085 540.977 Z" fill="#000000" fill-rule="evenodd" fill-opacity="1" /><path clip-path="url(#clip790)" d="M2097.48 543.662 L2097.48 551.023 L2106.25 551.023 L2106.25 554.333 L2097.48 554.333 L2097.48 568.407 Q2097.48 571.578 2098.34 572.481 Q2099.22 573.384 2101.88 573.384 L2106.25 573.384 L2106.25 576.949 L2101.88 576.949 Q2096.95 576.949 2095.07 575.12 Q2093.2 573.268 2093.2 568.407 L2093.2 554.333 L2090.07 554.333 L2090.07 551.023 L2093.2 551.023 L2093.2 543.662 L2097.48 543.662 Z" fill="#000000" fill-rule="evenodd" fill-opacity="1" /><path clip-path="url(#clip790)" d="M2111.18 540.977 L2114.89 540.977 Q2118.36 546.44 2120.07 551.671 Q2121.81 556.902 2121.81 562.064 Q2121.81 567.25 2120.07 572.504 Q2118.36 577.759 2114.89 583.199 L2111.18 583.199 Q2114.26 577.898 2115.77 572.666 Q2117.29 567.412 2117.29 562.064 Q2117.29 556.717 2115.77 551.509 Q2114.26 546.301 2111.18 540.977 Z" fill="#000000" fill-rule="evenodd" fill-opacity="1" /><polyline clip-path="url(#clip790)" style="stroke:#8e971d; stroke-linecap:butt; stroke-linejoin:round; stroke-width:4; stroke-opacity:1; fill:none" points="
  1799.78,611.509 1947.25,611.509 
  "/>
<path clip-path="url(#clip790)" d="M1999.7 596.891 L1999.7 601.821 Q1997.34 599.622 1994.66 598.534 Q1991.99 597.446 1988.99 597.446 Q1983.06 597.446 1979.91 601.08 Q1976.76 604.692 1976.76 611.543 Q1976.76 618.372 1979.91 622.006 Q1983.06 625.617 1988.99 625.617 Q1991.99 625.617 1994.66 624.529 Q1997.34 623.441 1999.7 621.242 L1999.7 626.127 Q1997.25 627.793 1994.49 628.627 Q1991.76 629.46 1988.71 629.46 Q1980.86 629.46 1976.35 624.668 Q1971.83 619.853 1971.83 611.543 Q1971.83 603.21 1976.35 598.418 Q1980.86 593.604 1988.71 593.604 Q1991.81 593.604 1994.54 594.437 Q1997.3 595.247 1999.7 596.891 Z" fill="#000000" fill-rule="evenodd" fill-opacity="1" /><path clip-path="url(#clip790)" d="M2006.93 594.229 L2011.6 594.229 L2011.6 608.395 L2028.59 608.395 L2028.59 594.229 L2033.27 594.229 L2033.27 628.789 L2028.59 628.789 L2028.59 612.33 L2011.6 612.33 L2011.6 628.789 L2006.93 628.789 L2006.93 594.229 Z" fill="#000000" fill-rule="evenodd" fill-opacity="1" /><path clip-path="url(#clip790)" d="M2047.02 624.853 L2063.34 624.853 L2063.34 628.789 L2041.39 628.789 L2041.39 624.853 Q2044.05 622.099 2048.64 617.469 Q2053.24 612.816 2054.42 611.474 Q2056.67 608.951 2057.55 607.215 Q2058.45 605.455 2058.45 603.766 Q2058.45 601.011 2056.51 599.275 Q2054.59 597.539 2051.48 597.539 Q2049.29 597.539 2046.83 598.303 Q2044.4 599.067 2041.62 600.617 L2041.62 595.895 Q2044.45 594.761 2046.9 594.182 Q2049.36 593.604 2051.39 593.604 Q2056.76 593.604 2059.96 596.289 Q2063.15 598.974 2063.15 603.465 Q2063.15 605.594 2062.34 607.516 Q2061.55 609.414 2059.45 612.006 Q2058.87 612.678 2055.77 615.895 Q2052.67 619.09 2047.02 624.853 Z" fill="#000000" fill-rule="evenodd" fill-opacity="1" /><path clip-path="url(#clip790)" d="M2086.76 597.4 Q2081.67 597.4 2078.66 601.196 Q2075.67 604.992 2075.67 611.543 Q2075.67 618.071 2078.66 621.867 Q2081.67 625.664 2086.76 625.664 Q2091.86 625.664 2094.82 621.867 Q2097.8 618.071 2097.8 611.543 Q2097.8 604.992 2094.82 601.196 Q2091.86 597.4 2086.76 597.4 M2086.76 593.604 Q2094.03 593.604 2098.38 598.488 Q2102.73 603.349 2102.73 611.543 Q2102.73 619.715 2098.38 624.599 Q2094.03 629.46 2086.76 629.46 Q2079.47 629.46 2075.1 624.599 Q2070.74 619.738 2070.74 611.543 Q2070.74 603.349 2075.1 598.488 Q2079.47 593.604 2086.76 593.604 Z" fill="#000000" fill-rule="evenodd" fill-opacity="1" /><path clip-path="url(#clip790)" d="M2120.1 592.817 Q2116.99 598.141 2115.49 603.349 Q2113.98 608.557 2113.98 613.904 Q2113.98 619.252 2115.49 624.506 Q2117.02 629.738 2120.1 635.039 L2116.39 635.039 Q2112.92 629.599 2111.18 624.344 Q2109.47 619.09 2109.47 613.904 Q2109.47 608.742 2111.18 603.511 Q2112.9 598.28 2116.39 592.817 L2120.1 592.817 Z" fill="#000000" fill-rule="evenodd" fill-opacity="1" /><path clip-path="url(#clip790)" d="M2132.57 595.502 L2132.57 602.863 L2141.35 602.863 L2141.35 606.173 L2132.57 606.173 L2132.57 620.247 Q2132.57 623.418 2133.43 624.321 Q2134.31 625.224 2136.97 625.224 L2141.35 625.224 L2141.35 628.789 L2136.97 628.789 Q2132.04 628.789 2130.17 626.96 Q2128.29 625.108 2128.29 620.247 L2128.29 606.173 L2125.17 606.173 L2125.17 602.863 L2128.29 602.863 L2128.29 595.502 L2132.57 595.502 Z" fill="#000000" fill-rule="evenodd" fill-opacity="1" /><path clip-path="url(#clip790)" d="M2146.28 592.817 L2149.98 592.817 Q2153.45 598.28 2155.16 603.511 Q2156.9 608.742 2156.9 613.904 Q2156.9 619.09 2155.16 624.344 Q2153.45 629.599 2149.98 635.039 L2146.28 635.039 Q2149.35 629.738 2150.86 624.506 Q2152.39 619.252 2152.39 613.904 Q2152.39 608.557 2150.86 603.349 Q2149.35 598.141 2146.28 592.817 Z" fill="#000000" fill-rule="evenodd" fill-opacity="1" /><polyline clip-path="url(#clip790)" style="stroke:#00a8cb; stroke-linecap:butt; stroke-linejoin:round; stroke-width:4; stroke-opacity:1; fill:none" points="
  1799.78,663.349 1947.25,663.349 
  "/>
<path clip-path="url(#clip790)" d="M1999.7 648.731 L1999.7 653.661 Q1997.34 651.462 1994.66 650.374 Q1991.99 649.286 1988.99 649.286 Q1983.06 649.286 1979.91 652.92 Q1976.76 656.532 1976.76 663.383 Q1976.76 670.212 1979.91 673.846 Q1983.06 677.457 1988.99 677.457 Q1991.99 677.457 1994.66 676.369 Q1997.34 675.281 1999.7 673.082 L1999.7 677.967 Q1997.25 679.633 1994.49 680.467 Q1991.76 681.3 1988.71 681.3 Q1980.86 681.3 1976.35 676.508 Q1971.83 671.693 1971.83 663.383 Q1971.83 655.05 1976.35 650.258 Q1980.86 645.444 1988.71 645.444 Q1991.81 645.444 1994.54 646.277 Q1997.3 647.087 1999.7 648.731 Z" fill="#000000" fill-rule="evenodd" fill-opacity="1" /><path clip-path="url(#clip790)" d="M2020.95 649.24 Q2015.86 649.24 2012.85 653.036 Q2009.86 656.832 2009.86 663.383 Q2009.86 669.911 2012.85 673.707 Q2015.86 677.504 2020.95 677.504 Q2026.05 677.504 2029.01 673.707 Q2031.99 669.911 2031.99 663.383 Q2031.99 656.832 2029.01 653.036 Q2026.05 649.24 2020.95 649.24 M2020.95 645.444 Q2028.22 645.444 2032.57 650.328 Q2036.92 655.189 2036.92 663.383 Q2036.92 671.555 2032.57 676.439 Q2028.22 681.3 2020.95 681.3 Q2013.66 681.3 2009.29 676.439 Q2004.93 671.578 2004.93 663.383 Q2004.93 655.189 2009.29 650.328 Q2013.66 645.444 2020.95 645.444 Z" fill="#000000" fill-rule="evenodd" fill-opacity="1" /><path clip-path="url(#clip790)" d="M2054.29 644.657 Q2051.18 649.981 2049.68 655.189 Q2048.17 660.397 2048.17 665.744 Q2048.17 671.092 2049.68 676.346 Q2051.21 681.578 2054.29 686.879 L2050.58 686.879 Q2047.11 681.439 2045.37 676.184 Q2043.66 670.93 2043.66 665.744 Q2043.66 660.582 2045.37 655.351 Q2047.09 650.12 2050.58 644.657 L2054.29 644.657 Z" fill="#000000" fill-rule="evenodd" fill-opacity="1" /><path clip-path="url(#clip790)" d="M2066.76 647.342 L2066.76 654.703 L2075.54 654.703 L2075.54 658.013 L2066.76 658.013 L2066.76 672.087 Q2066.76 675.258 2067.62 676.161 Q2068.5 677.064 2071.16 677.064 L2075.54 677.064 L2075.54 680.629 L2071.16 680.629 Q2066.23 680.629 2064.36 678.8 Q2062.48 676.948 2062.48 672.087 L2062.48 658.013 L2059.36 658.013 L2059.36 654.703 L2062.48 654.703 L2062.48 647.342 L2066.76 647.342 Z" fill="#000000" fill-rule="evenodd" fill-opacity="1" /><path clip-path="url(#clip790)" d="M2080.47 644.657 L2084.17 644.657 Q2087.64 650.12 2089.36 655.351 Q2091.09 660.582 2091.09 665.744 Q2091.09 670.93 2089.36 676.184 Q2087.64 681.439 2084.17 686.879 L2080.47 686.879 Q2083.55 681.578 2085.05 676.346 Q2086.58 671.092 2086.58 665.744 Q2086.58 660.397 2085.05 655.189 Q2083.55 649.981 2080.47 644.657 Z" fill="#000000" fill-rule="evenodd" fill-opacity="1" /><polyline clip-path="url(#clip790)" style="stroke:#9b7fe8; stroke-linecap:butt; stroke-linejoin:round; stroke-width:4; stroke-opacity:1; fill:none" points="
  1799.78,715.189 1947.25,715.189 
  "/>
<path clip-path="url(#clip790)" d="M1999.7 700.571 L1999.7 705.501 Q1997.34 703.302 1994.66 702.214 Q1991.99 701.126 1988.99 701.126 Q1983.06 701.126 1979.91 704.76 Q1976.76 708.372 1976.76 715.223 Q1976.76 722.052 1979.91 725.686 Q1983.06 729.297 1988.99 729.297 Q1991.99 729.297 1994.66 728.209 Q1997.34 727.121 1999.7 724.922 L1999.7 729.807 Q1997.25 731.473 1994.49 732.307 Q1991.76 733.14 1988.71 733.14 Q1980.86 733.14 1976.35 728.348 Q1971.83 723.533 1971.83 715.223 Q1971.83 706.89 1976.35 702.098 Q1980.86 697.284 1988.71 697.284 Q1991.81 697.284 1994.54 698.117 Q1997.3 698.927 1999.7 700.571 Z" fill="#000000" fill-rule="evenodd" fill-opacity="1" /><path clip-path="url(#clip790)" d="M2006.93 697.909 L2011.6 697.909 L2011.6 712.075 L2028.59 712.075 L2028.59 697.909 L2033.27 697.909 L2033.27 732.469 L2028.59 732.469 L2028.59 716.01 L2011.6 716.01 L2011.6 732.469 L2006.93 732.469 L2006.93 697.909 Z" fill="#000000" fill-rule="evenodd" fill-opacity="1" /><path clip-path="url(#clip790)" d="M2057.16 713.834 Q2060.51 714.552 2062.39 716.821 Q2064.29 719.089 2064.29 722.422 Q2064.29 727.538 2060.77 730.339 Q2057.25 733.14 2050.77 733.14 Q2048.59 733.14 2046.28 732.7 Q2043.99 732.283 2041.53 731.427 L2041.53 726.913 Q2043.48 728.047 2045.79 728.626 Q2048.11 729.205 2050.63 729.205 Q2055.03 729.205 2057.32 727.469 Q2059.63 725.733 2059.63 722.422 Q2059.63 719.367 2057.48 717.654 Q2055.35 715.918 2051.53 715.918 L2047.5 715.918 L2047.5 712.075 L2051.72 712.075 Q2055.17 712.075 2056.99 710.709 Q2058.82 709.321 2058.82 706.728 Q2058.82 704.066 2056.92 702.654 Q2055.05 701.219 2051.53 701.219 Q2049.61 701.219 2047.41 701.635 Q2045.21 702.052 2042.57 702.932 L2042.57 698.765 Q2045.24 698.024 2047.55 697.654 Q2049.89 697.284 2051.95 697.284 Q2057.27 697.284 2060.37 699.714 Q2063.48 702.122 2063.48 706.242 Q2063.48 709.112 2061.83 711.103 Q2060.19 713.071 2057.16 713.834 Z" fill="#000000" fill-rule="evenodd" fill-opacity="1" /><path clip-path="url(#clip790)" d="M2086.76 701.08 Q2081.67 701.08 2078.66 704.876 Q2075.67 708.672 2075.67 715.223 Q2075.67 721.751 2078.66 725.547 Q2081.67 729.344 2086.76 729.344 Q2091.86 729.344 2094.82 725.547 Q2097.8 721.751 2097.8 715.223 Q2097.8 708.672 2094.82 704.876 Q2091.86 701.08 2086.76 701.08 M2086.76 697.284 Q2094.03 697.284 2098.38 702.168 Q2102.73 707.029 2102.73 715.223 Q2102.73 723.395 2098.38 728.279 Q2094.03 733.14 2086.76 733.14 Q2079.47 733.14 2075.1 728.279 Q2070.74 723.418 2070.74 715.223 Q2070.74 707.029 2075.1 702.168 Q2079.47 697.284 2086.76 697.284 Z" fill="#000000" fill-rule="evenodd" fill-opacity="1" /><path clip-path="url(#clip790)" d="M2124.08 701.08 Q2118.98 701.08 2115.98 704.876 Q2112.99 708.672 2112.99 715.223 Q2112.99 721.751 2115.98 725.547 Q2118.98 729.344 2124.08 729.344 Q2129.17 729.344 2132.13 725.547 Q2135.12 721.751 2135.12 715.223 Q2135.12 708.672 2132.13 704.876 Q2129.17 701.08 2124.08 701.08 M2124.08 697.284 Q2131.35 697.284 2135.7 702.168 Q2140.05 707.029 2140.05 715.223 Q2140.05 723.395 2135.7 728.279 Q2131.35 733.14 2124.08 733.14 Q2116.79 733.14 2112.41 728.279 Q2108.06 723.418 2108.06 715.223 Q2108.06 707.029 2112.41 702.168 Q2116.79 697.284 2124.08 697.284 Z" fill="#000000" fill-rule="evenodd" fill-opacity="1" /><path clip-path="url(#clip790)" d="M2147.36 697.909 L2152.04 697.909 L2152.04 712.075 L2169.03 712.075 L2169.03 697.909 L2173.71 697.909 L2173.71 732.469 L2169.03 732.469 L2169.03 716.01 L2152.04 716.01 L2152.04 732.469 L2147.36 732.469 L2147.36 697.909 Z" fill="#000000" fill-rule="evenodd" fill-opacity="1" /><path clip-path="url(#clip790)" d="M2193.06 696.497 Q2189.96 701.821 2188.45 707.029 Q2186.95 712.237 2186.95 717.584 Q2186.95 722.932 2188.45 728.186 Q2189.98 733.418 2193.06 738.719 L2189.35 738.719 Q2185.88 733.279 2184.15 728.024 Q2182.43 722.77 2182.43 717.584 Q2182.43 712.422 2184.15 707.191 Q2185.86 701.96 2189.35 696.497 L2193.06 696.497 Z" fill="#000000" fill-rule="evenodd" fill-opacity="1" /><path clip-path="url(#clip790)" d="M2205.54 699.182 L2205.54 706.543 L2214.31 706.543 L2214.31 709.853 L2205.54 709.853 L2205.54 723.927 Q2205.54 727.098 2206.39 728.001 Q2207.27 728.904 2209.93 728.904 L2214.31 728.904 L2214.31 732.469 L2209.93 732.469 Q2205 732.469 2203.13 730.64 Q2201.25 728.788 2201.25 723.927 L2201.25 709.853 L2198.13 709.853 L2198.13 706.543 L2201.25 706.543 L2201.25 699.182 L2205.54 699.182 Z" fill="#000000" fill-rule="evenodd" fill-opacity="1" /><path clip-path="url(#clip790)" d="M2219.24 696.497 L2222.94 696.497 Q2226.41 701.96 2228.13 707.191 Q2229.86 712.422 2229.86 717.584 Q2229.86 722.77 2228.13 728.024 Q2226.41 733.279 2222.94 738.719 L2219.24 738.719 Q2222.32 733.418 2223.82 728.186 Q2225.35 722.932 2225.35 717.584 Q2225.35 712.237 2223.82 707.029 Q2222.32 701.821 2219.24 696.497 Z" fill="#000000" fill-rule="evenodd" fill-opacity="1" /><polyline clip-path="url(#clip790)" style="stroke:#608cf6; stroke-linecap:butt; stroke-linejoin:round; stroke-width:4; stroke-opacity:1; fill:none" points="
  1799.78,767.029 1947.25,767.029 
  "/>
<path clip-path="url(#clip790)" d="M1999.7 752.411 L1999.7 757.341 Q1997.34 755.142 1994.66 754.054 Q1991.99 752.966 1988.99 752.966 Q1983.06 752.966 1979.91 756.6 Q1976.76 760.212 1976.76 767.063 Q1976.76 773.892 1979.91 777.526 Q1983.06 781.137 1988.99 781.137 Q1991.99 781.137 1994.66 780.049 Q1997.34 778.961 1999.7 776.762 L1999.7 781.647 Q1997.25 783.313 1994.49 784.147 Q1991.76 784.98 1988.71 784.98 Q1980.86 784.98 1976.35 780.188 Q1971.83 775.373 1971.83 767.063 Q1971.83 758.73 1976.35 753.938 Q1980.86 749.124 1988.71 749.124 Q1991.81 749.124 1994.54 749.957 Q1997.3 750.767 1999.7 752.411 Z" fill="#000000" fill-rule="evenodd" fill-opacity="1" /><path clip-path="url(#clip790)" d="M2006.93 749.749 L2011.6 749.749 L2011.6 763.915 L2028.59 763.915 L2028.59 749.749 L2033.27 749.749 L2033.27 784.309 L2028.59 784.309 L2028.59 767.85 L2011.6 767.85 L2011.6 784.309 L2006.93 784.309 L2006.93 749.749 Z" fill="#000000" fill-rule="evenodd" fill-opacity="1" /><path clip-path="url(#clip790)" d="M2057.16 765.674 Q2060.51 766.392 2062.39 768.661 Q2064.29 770.929 2064.29 774.262 Q2064.29 779.378 2060.77 782.179 Q2057.25 784.98 2050.77 784.98 Q2048.59 784.98 2046.28 784.54 Q2043.99 784.123 2041.53 783.267 L2041.53 778.753 Q2043.48 779.887 2045.79 780.466 Q2048.11 781.045 2050.63 781.045 Q2055.03 781.045 2057.32 779.309 Q2059.63 777.573 2059.63 774.262 Q2059.63 771.207 2057.48 769.494 Q2055.35 767.758 2051.53 767.758 L2047.5 767.758 L2047.5 763.915 L2051.72 763.915 Q2055.17 763.915 2056.99 762.549 Q2058.82 761.161 2058.82 758.568 Q2058.82 755.906 2056.92 754.494 Q2055.05 753.059 2051.53 753.059 Q2049.61 753.059 2047.41 753.475 Q2045.21 753.892 2042.57 754.772 L2042.57 750.605 Q2045.24 749.864 2047.55 749.494 Q2049.89 749.124 2051.95 749.124 Q2057.27 749.124 2060.37 751.554 Q2063.48 753.962 2063.48 758.082 Q2063.48 760.952 2061.83 762.943 Q2060.19 764.911 2057.16 765.674 Z" fill="#000000" fill-rule="evenodd" fill-opacity="1" /><path clip-path="url(#clip790)" d="M2086.76 752.92 Q2081.67 752.92 2078.66 756.716 Q2075.67 760.512 2075.67 767.063 Q2075.67 773.591 2078.66 777.387 Q2081.67 781.184 2086.76 781.184 Q2091.86 781.184 2094.82 777.387 Q2097.8 773.591 2097.8 767.063 Q2097.8 760.512 2094.82 756.716 Q2091.86 752.92 2086.76 752.92 M2086.76 749.124 Q2094.03 749.124 2098.38 754.008 Q2102.73 758.869 2102.73 767.063 Q2102.73 775.235 2098.38 780.119 Q2094.03 784.98 2086.76 784.98 Q2079.47 784.98 2075.1 780.119 Q2070.74 775.258 2070.74 767.063 Q2070.74 758.869 2075.1 754.008 Q2079.47 749.124 2086.76 749.124 Z" fill="#000000" fill-rule="evenodd" fill-opacity="1" /><path clip-path="url(#clip790)" d="M2120.1 748.337 Q2116.99 753.661 2115.49 758.869 Q2113.98 764.077 2113.98 769.424 Q2113.98 774.772 2115.49 780.026 Q2117.02 785.258 2120.1 790.559 L2116.39 790.559 Q2112.92 785.119 2111.18 779.864 Q2109.47 774.61 2109.47 769.424 Q2109.47 764.262 2111.18 759.031 Q2112.9 753.8 2116.39 748.337 L2120.1 748.337 Z" fill="#000000" fill-rule="evenodd" fill-opacity="1" /><path clip-path="url(#clip790)" d="M2132.57 751.022 L2132.57 758.383 L2141.35 758.383 L2141.35 761.693 L2132.57 761.693 L2132.57 775.767 Q2132.57 778.938 2133.43 779.841 Q2134.31 780.744 2136.97 780.744 L2141.35 780.744 L2141.35 784.309 L2136.97 784.309 Q2132.04 784.309 2130.17 782.48 Q2128.29 780.628 2128.29 775.767 L2128.29 761.693 L2125.17 761.693 L2125.17 758.383 L2128.29 758.383 L2128.29 751.022 L2132.57 751.022 Z" fill="#000000" fill-rule="evenodd" fill-opacity="1" /><path clip-path="url(#clip790)" d="M2146.28 748.337 L2149.98 748.337 Q2153.45 753.8 2155.16 759.031 Q2156.9 764.262 2156.9 769.424 Q2156.9 774.61 2155.16 779.864 Q2153.45 785.119 2149.98 790.559 L2146.28 790.559 Q2149.35 785.258 2150.86 780.026 Q2152.39 774.772 2152.39 769.424 Q2152.39 764.077 2150.86 758.869 Q2149.35 753.661 2146.28 748.337 Z" fill="#000000" fill-rule="evenodd" fill-opacity="1" /><polyline clip-path="url(#clip790)" style="stroke:#f05f73; stroke-linecap:butt; stroke-linejoin:round; stroke-width:4; stroke-opacity:1; fill:none" points="
  1799.78,818.869 1947.25,818.869 
  "/>
<path clip-path="url(#clip790)" d="M1976.51 805.431 L1976.51 832.306 L1982.16 832.306 Q1989.31 832.306 1992.62 829.065 Q1995.95 825.825 1995.95 818.834 Q1995.95 811.889 1992.62 808.672 Q1989.31 805.431 1982.16 805.431 L1976.51 805.431 M1971.83 801.589 L1981.44 801.589 Q1991.49 801.589 1996.18 805.778 Q2000.88 809.945 2000.88 818.834 Q2000.88 827.769 1996.16 831.959 Q1991.44 836.149 1981.44 836.149 L1971.83 836.149 L1971.83 801.589 Z" fill="#000000" fill-rule="evenodd" fill-opacity="1" /><path clip-path="url(#clip790)" d="M2008.34 801.589 L2015.3 801.589 L2024.12 825.107 L2032.99 801.589 L2039.96 801.589 L2039.96 836.149 L2035.4 836.149 L2035.4 805.802 L2026.49 829.505 L2021.79 829.505 L2012.87 805.802 L2012.87 836.149 L2008.34 836.149 L2008.34 801.589 Z" fill="#000000" fill-rule="evenodd" fill-opacity="1" /><path clip-path="url(#clip790)" d="M2069.96 802.723 L2069.96 807.283 Q2067.3 806.01 2064.93 805.385 Q2062.57 804.76 2060.37 804.76 Q2056.55 804.76 2054.47 806.241 Q2052.41 807.723 2052.41 810.454 Q2052.41 812.746 2053.78 813.927 Q2055.17 815.084 2059.01 815.802 L2061.83 816.38 Q2067.06 817.376 2069.54 819.899 Q2072.04 822.399 2072.04 826.612 Q2072.04 831.635 2068.66 834.227 Q2065.3 836.82 2058.8 836.82 Q2056.35 836.82 2053.57 836.264 Q2050.81 835.709 2047.85 834.621 L2047.85 829.806 Q2050.7 831.403 2053.43 832.213 Q2056.16 833.024 2058.8 833.024 Q2062.8 833.024 2064.98 831.45 Q2067.16 829.876 2067.16 826.959 Q2067.16 824.413 2065.58 822.977 Q2064.03 821.542 2060.47 820.825 L2057.62 820.269 Q2052.39 819.227 2050.05 817.005 Q2047.71 814.783 2047.71 810.825 Q2047.71 806.241 2050.93 803.602 Q2054.17 800.964 2059.84 800.964 Q2062.27 800.964 2064.8 801.403 Q2067.32 801.843 2069.96 802.723 Z" fill="#000000" fill-rule="evenodd" fill-opacity="1" /><path clip-path="url(#clip790)" d="M2089.38 800.177 Q2086.28 805.501 2084.77 810.709 Q2083.27 815.917 2083.27 821.264 Q2083.27 826.612 2084.77 831.866 Q2086.3 837.098 2089.38 842.399 L2085.67 842.399 Q2082.2 836.959 2080.47 831.704 Q2078.75 826.45 2078.75 821.264 Q2078.75 816.102 2080.47 810.871 Q2082.18 805.64 2085.67 800.177 L2089.38 800.177 Z" fill="#000000" fill-rule="evenodd" fill-opacity="1" /><path clip-path="url(#clip790)" d="M2101.86 802.862 L2101.86 810.223 L2110.63 810.223 L2110.63 813.533 L2101.86 813.533 L2101.86 827.607 Q2101.86 830.778 2102.71 831.681 Q2103.59 832.584 2106.25 832.584 L2110.63 832.584 L2110.63 836.149 L2106.25 836.149 Q2101.32 836.149 2099.45 834.32 Q2097.57 832.468 2097.57 827.607 L2097.57 813.533 L2094.45 813.533 L2094.45 810.223 L2097.57 810.223 L2097.57 802.862 L2101.86 802.862 Z" fill="#000000" fill-rule="evenodd" fill-opacity="1" /><path clip-path="url(#clip790)" d="M2115.56 800.177 L2119.26 800.177 Q2122.73 805.64 2124.45 810.871 Q2126.18 816.102 2126.18 821.264 Q2126.18 826.45 2124.45 831.704 Q2122.73 836.959 2119.26 842.399 L2115.56 842.399 Q2118.64 837.098 2120.14 831.866 Q2121.67 826.612 2121.67 821.264 Q2121.67 815.917 2120.14 810.709 Q2118.64 805.501 2115.56 800.177 Z" fill="#000000" fill-rule="evenodd" fill-opacity="1" /><polyline clip-path="url(#clip790)" style="stroke:#dd64b5; stroke-linecap:butt; stroke-linejoin:round; stroke-width:4; stroke-opacity:1; fill:none" points="
  1799.78,870.709 1947.25,870.709 
  "/>
<path clip-path="url(#clip790)" d="M1994.08 854.563 L1994.08 859.123 Q1991.42 857.85 1989.05 857.225 Q1986.69 856.6 1984.49 856.6 Q1980.68 856.6 1978.59 858.081 Q1976.53 859.563 1976.53 862.294 Q1976.53 864.586 1977.9 865.767 Q1979.29 866.924 1983.13 867.642 L1985.95 868.22 Q1991.18 869.216 1993.66 871.739 Q1996.16 874.239 1996.16 878.452 Q1996.16 883.475 1992.78 886.067 Q1989.43 888.66 1982.92 888.66 Q1980.47 888.66 1977.69 888.104 Q1974.93 887.549 1971.97 886.461 L1971.97 881.646 Q1974.82 883.243 1977.55 884.053 Q1980.28 884.864 1982.92 884.864 Q1986.93 884.864 1989.1 883.29 Q1991.28 881.716 1991.28 878.799 Q1991.28 876.253 1989.7 874.817 Q1988.15 873.382 1984.59 872.665 L1981.74 872.109 Q1976.51 871.067 1974.17 868.845 Q1971.83 866.623 1971.83 862.665 Q1971.83 858.081 1975.05 855.442 Q1978.29 852.804 1983.96 852.804 Q1986.39 852.804 1988.92 853.243 Q1991.44 853.683 1994.08 854.563 Z" fill="#000000" fill-rule="evenodd" fill-opacity="1" /><path clip-path="url(#clip790)" d="M2017.48 856.6 Q2012.39 856.6 2009.38 860.396 Q2006.39 864.192 2006.39 870.743 Q2006.39 877.271 2009.38 881.067 Q2012.39 884.864 2017.48 884.864 Q2022.57 884.864 2025.54 881.067 Q2028.52 877.271 2028.52 870.743 Q2028.52 864.192 2025.54 860.396 Q2022.57 856.6 2017.48 856.6 M2017.48 852.804 Q2024.75 852.804 2029.1 857.688 Q2033.45 862.549 2033.45 870.743 Q2033.45 878.915 2029.1 883.799 Q2024.75 888.66 2017.48 888.66 Q2010.19 888.66 2005.81 883.799 Q2001.46 878.938 2001.46 870.743 Q2001.46 862.549 2005.81 857.688 Q2010.19 852.804 2017.48 852.804 Z" fill="#000000" fill-rule="evenodd" fill-opacity="1" /><path clip-path="url(#clip790)" d="M2045.21 884.053 L2061.53 884.053 L2061.53 887.989 L2039.59 887.989 L2039.59 884.053 Q2042.25 881.299 2046.83 876.669 Q2051.44 872.016 2052.62 870.674 Q2054.86 868.151 2055.74 866.415 Q2056.65 864.655 2056.65 862.966 Q2056.65 860.211 2054.7 858.475 Q2052.78 856.739 2049.68 856.739 Q2047.48 856.739 2045.03 857.503 Q2042.6 858.267 2039.82 859.817 L2039.82 855.095 Q2042.64 853.961 2045.1 853.382 Q2047.55 852.804 2049.59 852.804 Q2054.96 852.804 2058.15 855.489 Q2061.35 858.174 2061.35 862.665 Q2061.35 864.794 2060.54 866.716 Q2059.75 868.614 2057.64 871.206 Q2057.06 871.878 2053.96 875.095 Q2050.86 878.29 2045.21 884.053 Z" fill="#000000" fill-rule="evenodd" fill-opacity="1" /><path clip-path="url(#clip790)" d="M2080.98 852.017 Q2077.87 857.341 2076.37 862.549 Q2074.86 867.757 2074.86 873.104 Q2074.86 878.452 2076.37 883.706 Q2077.9 888.938 2080.98 894.239 L2077.27 894.239 Q2073.8 888.799 2072.06 883.544 Q2070.35 878.29 2070.35 873.104 Q2070.35 867.942 2072.06 862.711 Q2073.78 857.48 2077.27 852.017 L2080.98 852.017 Z" fill="#000000" fill-rule="evenodd" fill-opacity="1" /><path clip-path="url(#clip790)" d="M2093.45 854.702 L2093.45 862.063 L2102.23 862.063 L2102.23 865.373 L2093.45 865.373 L2093.45 879.447 Q2093.45 882.618 2094.31 883.521 Q2095.19 884.424 2097.85 884.424 L2102.23 884.424 L2102.23 887.989 L2097.85 887.989 Q2092.92 887.989 2091.04 886.16 Q2089.17 884.308 2089.17 879.447 L2089.17 865.373 L2086.04 865.373 L2086.04 862.063 L2089.17 862.063 L2089.17 854.702 L2093.45 854.702 Z" fill="#000000" fill-rule="evenodd" fill-opacity="1" /><path clip-path="url(#clip790)" d="M2107.16 852.017 L2110.86 852.017 Q2114.33 857.48 2116.04 862.711 Q2117.78 867.942 2117.78 873.104 Q2117.78 878.29 2116.04 883.544 Q2114.33 888.799 2110.86 894.239 L2107.16 894.239 Q2110.23 888.938 2111.74 883.706 Q2113.27 878.452 2113.27 873.104 Q2113.27 867.757 2111.74 862.549 Q2110.23 857.341 2107.16 852.017 Z" fill="#000000" fill-rule="evenodd" fill-opacity="1" /><polyline clip-path="url(#clip790)" style="stroke:#6b9e32; stroke-linecap:butt; stroke-linejoin:round; stroke-width:4; stroke-opacity:1; fill:none" points="
  1799.78,922.549 1947.25,922.549 
  "/>
<path clip-path="url(#clip790)" d="M1971.83 905.269 L1976.51 905.269 L1976.51 939.829 L1971.83 939.829 L1971.83 905.269 Z" fill="#000000" fill-rule="evenodd" fill-opacity="1" /><path clip-path="url(#clip790)" d="M2006.53 906.403 L2006.53 910.963 Q2003.87 909.69 2001.51 909.065 Q1999.15 908.44 1996.95 908.44 Q1993.13 908.44 1991.05 909.921 Q1988.99 911.403 1988.99 914.134 Q1988.99 916.426 1990.35 917.607 Q1991.74 918.764 1995.58 919.482 L1998.41 920.06 Q2003.64 921.056 2006.11 923.579 Q2008.61 926.079 2008.61 930.292 Q2008.61 935.315 2005.24 937.907 Q2001.88 940.5 1995.37 940.5 Q1992.92 940.5 1990.14 939.944 Q1987.39 939.389 1984.43 938.301 L1984.43 933.486 Q1987.27 935.083 1990 935.893 Q1992.74 936.704 1995.37 936.704 Q1999.38 936.704 2001.55 935.13 Q2003.73 933.556 2003.73 930.639 Q2003.73 928.093 2002.16 926.657 Q2000.61 925.222 1997.04 924.505 L1994.19 923.949 Q1988.96 922.907 1986.62 920.685 Q1984.29 918.463 1984.29 914.505 Q1984.29 909.921 1987.5 907.282 Q1990.74 904.644 1996.42 904.644 Q1998.85 904.644 2001.37 905.083 Q2003.89 905.523 2006.53 906.403 Z" fill="#000000" fill-rule="evenodd" fill-opacity="1" /><path clip-path="url(#clip790)" d="M2029.93 908.44 Q2024.84 908.44 2021.83 912.236 Q2018.85 916.032 2018.85 922.583 Q2018.85 929.111 2021.83 932.907 Q2024.84 936.704 2029.93 936.704 Q2035.03 936.704 2037.99 932.907 Q2040.98 929.111 2040.98 922.583 Q2040.98 916.032 2037.99 912.236 Q2035.03 908.44 2029.93 908.44 M2029.93 904.644 Q2037.2 904.644 2041.55 909.528 Q2045.91 914.389 2045.91 922.583 Q2045.91 930.755 2041.55 935.639 Q2037.2 940.5 2029.93 940.5 Q2022.64 940.5 2018.27 935.639 Q2013.92 930.778 2013.92 922.583 Q2013.92 914.389 2018.27 909.528 Q2022.64 904.644 2029.93 904.644 Z" fill="#000000" fill-rule="evenodd" fill-opacity="1" /><path clip-path="url(#clip790)" d="M2057.9 909.111 L2057.9 922.097 L2063.78 922.097 Q2067.04 922.097 2068.82 920.407 Q2070.61 918.718 2070.61 915.593 Q2070.61 912.491 2068.82 910.801 Q2067.04 909.111 2063.78 909.111 L2057.9 909.111 M2053.22 905.269 L2063.78 905.269 Q2069.59 905.269 2072.55 907.907 Q2075.54 910.523 2075.54 915.593 Q2075.54 920.708 2072.55 923.324 Q2069.59 925.94 2063.78 925.94 L2057.9 925.94 L2057.9 939.829 L2053.22 939.829 L2053.22 905.269 Z" fill="#000000" fill-rule="evenodd" fill-opacity="1" /><path clip-path="url(#clip790)" d="M2091.86 903.857 Q2088.75 909.181 2087.25 914.389 Q2085.74 919.597 2085.74 924.944 Q2085.74 930.292 2087.25 935.546 Q2088.78 940.778 2091.86 946.079 L2088.15 946.079 Q2084.68 940.639 2082.94 935.384 Q2081.23 930.13 2081.23 924.944 Q2081.23 919.782 2082.94 914.551 Q2084.66 909.32 2088.15 903.857 L2091.86 903.857 Z" fill="#000000" fill-rule="evenodd" fill-opacity="1" /><path clip-path="url(#clip790)" d="M2104.33 906.542 L2104.33 913.903 L2113.11 913.903 L2113.11 917.213 L2104.33 917.213 L2104.33 931.287 Q2104.33 934.458 2105.19 935.361 Q2106.07 936.264 2108.73 936.264 L2113.11 936.264 L2113.11 939.829 L2108.73 939.829 Q2103.8 939.829 2101.92 938 Q2100.05 936.148 2100.05 931.287 L2100.05 917.213 L2096.92 917.213 L2096.92 913.903 L2100.05 913.903 L2100.05 906.542 L2104.33 906.542 Z" fill="#000000" fill-rule="evenodd" fill-opacity="1" /><path clip-path="url(#clip790)" d="M2118.04 903.857 L2121.74 903.857 Q2125.21 909.32 2126.92 914.551 Q2128.66 919.782 2128.66 924.944 Q2128.66 930.13 2126.92 935.384 Q2125.21 940.639 2121.74 946.079 L2118.04 946.079 Q2121.11 940.778 2122.62 935.546 Q2124.15 930.292 2124.15 924.944 Q2124.15 919.597 2122.62 914.389 Q2121.11 909.181 2118.04 903.857 Z" fill="#000000" fill-rule="evenodd" fill-opacity="1" /><polyline clip-path="url(#clip790)" style="stroke:#009af9; stroke-linecap:butt; stroke-linejoin:round; stroke-width:4; stroke-opacity:1; fill:none" points="
  1799.78,974.389 1947.25,974.389 
  "/>
<path clip-path="url(#clip790)" d="M1971.83 957.109 L1976.51 957.109 L1976.51 971.275 L1993.5 971.275 L1993.5 957.109 L1998.18 957.109 L1998.18 991.669 L1993.5 991.669 L1993.5 975.21 L1976.51 975.21 L1976.51 991.669 L1971.83 991.669 L1971.83 957.109 Z" fill="#000000" fill-rule="evenodd" fill-opacity="1" /><path clip-path="url(#clip790)" d="M2011.93 987.733 L2028.24 987.733 L2028.24 991.669 L2006.3 991.669 L2006.3 987.733 Q2008.96 984.979 2013.55 980.349 Q2018.15 975.696 2019.33 974.354 Q2021.58 971.831 2022.46 970.095 Q2023.36 968.335 2023.36 966.646 Q2023.36 963.891 2021.42 962.155 Q2019.49 960.419 2016.39 960.419 Q2014.19 960.419 2011.74 961.183 Q2009.31 961.947 2006.53 963.497 L2006.53 958.775 Q2009.36 957.641 2011.81 957.062 Q2014.26 956.484 2016.3 956.484 Q2021.67 956.484 2024.86 959.169 Q2028.06 961.854 2028.06 966.345 Q2028.06 968.474 2027.25 970.396 Q2026.46 972.294 2024.36 974.886 Q2023.78 975.558 2020.67 978.775 Q2017.57 981.97 2011.93 987.733 Z" fill="#000000" fill-rule="evenodd" fill-opacity="1" /><path clip-path="url(#clip790)" d="M2051.67 960.28 Q2046.58 960.28 2043.57 964.076 Q2040.58 967.872 2040.58 974.423 Q2040.58 980.951 2043.57 984.747 Q2046.58 988.544 2051.67 988.544 Q2056.76 988.544 2059.73 984.747 Q2062.71 980.951 2062.71 974.423 Q2062.71 967.872 2059.73 964.076 Q2056.76 960.28 2051.67 960.28 M2051.67 956.484 Q2058.94 956.484 2063.29 961.368 Q2067.64 966.229 2067.64 974.423 Q2067.64 982.595 2063.29 987.479 Q2058.94 992.34 2051.67 992.34 Q2044.38 992.34 2040 987.479 Q2035.65 982.618 2035.65 974.423 Q2035.65 966.229 2040 961.368 Q2044.38 956.484 2051.67 956.484 Z" fill="#000000" fill-rule="evenodd" fill-opacity="1" /><path clip-path="url(#clip790)" d="M2079.4 987.733 L2095.72 987.733 L2095.72 991.669 L2073.78 991.669 L2073.78 987.733 Q2076.44 984.979 2081.02 980.349 Q2085.63 975.696 2086.81 974.354 Q2089.05 971.831 2089.93 970.095 Q2090.84 968.335 2090.84 966.646 Q2090.84 963.891 2088.89 962.155 Q2086.97 960.419 2083.87 960.419 Q2081.67 960.419 2079.22 961.183 Q2076.79 961.947 2074.01 963.497 L2074.01 958.775 Q2076.83 957.641 2079.29 957.062 Q2081.74 956.484 2083.78 956.484 Q2089.15 956.484 2092.34 959.169 Q2095.54 961.854 2095.54 966.345 Q2095.54 968.474 2094.73 970.396 Q2093.94 972.294 2091.83 974.886 Q2091.25 975.558 2088.15 978.775 Q2085.05 981.97 2079.4 987.733 Z" fill="#000000" fill-rule="evenodd" fill-opacity="1" /><path clip-path="url(#clip790)" d="M2115.17 955.697 Q2112.06 961.021 2110.56 966.229 Q2109.05 971.437 2109.05 976.784 Q2109.05 982.132 2110.56 987.386 Q2112.09 992.618 2115.17 997.919 L2111.46 997.919 Q2107.99 992.479 2106.25 987.224 Q2104.54 981.97 2104.54 976.784 Q2104.54 971.622 2106.25 966.391 Q2107.97 961.16 2111.46 955.697 L2115.17 955.697 Z" fill="#000000" fill-rule="evenodd" fill-opacity="1" /><path clip-path="url(#clip790)" d="M2127.64 958.382 L2127.64 965.743 L2136.42 965.743 L2136.42 969.053 L2127.64 969.053 L2127.64 983.127 Q2127.64 986.298 2128.5 987.201 Q2129.38 988.104 2132.04 988.104 L2136.42 988.104 L2136.42 991.669 L2132.04 991.669 Q2127.11 991.669 2125.23 989.84 Q2123.36 987.988 2123.36 983.127 L2123.36 969.053 L2120.23 969.053 L2120.23 965.743 L2123.36 965.743 L2123.36 958.382 L2127.64 958.382 Z" fill="#000000" fill-rule="evenodd" fill-opacity="1" /><path clip-path="url(#clip790)" d="M2141.35 955.697 L2145.05 955.697 Q2148.52 961.16 2150.23 966.391 Q2151.97 971.622 2151.97 976.784 Q2151.97 981.97 2150.23 987.224 Q2148.52 992.479 2145.05 997.919 L2141.35 997.919 Q2144.42 992.618 2145.93 987.386 Q2147.46 982.132 2147.46 976.784 Q2147.46 971.437 2145.93 966.229 Q2144.42 961.021 2141.35 955.697 Z" fill="#000000" fill-rule="evenodd" fill-opacity="1" /></svg>
